<?xml version="1.0" standalone="no"?>
<!DOCTYPE svg PUBLIC "-//W3C//DTD SVG 1.1//EN" "http://www.w3.org/Graphics/SVG/1.1/DTD/svg11.dtd" >
<!--
2013-9-30: Created.
-->
<svg>
<metadata>
Created by iconfont
</metadata>
<defs>

<font id="iconfont" horiz-adv-x="1024" >
  <font-face
    font-family="iconfont"
    font-weight="500"
    font-stretch="normal"
    units-per-em="1024"
    ascent="896"
    descent="-128"
  />
    <missing-glyph />
    
    <glyph glyph-name="x" unicode="x" horiz-adv-x="1001"
d="M281 543q-27 -1 -53 -1h-83q-18 0 -36.5 -6t-32.5 -18.5t-23 -32t-9 -45.5v-76h912v41q0 16 -0.5 30t-0.5 18q0 13 -5 29t-17 29.5t-31.5 22.5t-49.5 9h-133v-97h-438v97zM955 310v-52q0 -23 0.5 -52t0.5 -58t-10.5 -47.5t-26 -30t-33 -16t-31.5 -4.5q-14 -1 -29.5 -0.5
t-29.5 0.5h-32l-45 128h-439l-44 -128h-29h-34q-20 0 -45 1q-25 0 -41 9.5t-25.5 23t-13.5 29.5t-4 30v167h911zM163 247q-12 0 -21 -8.5t-9 -21.5t9 -21.5t21 -8.5q13 0 22 8.5t9 21.5t-9 21.5t-22 8.5zM316 123q-8 -26 -14 -48q-5 -19 -10.5 -37t-7.5 -25t-3 -15t1 -14.5
t9.5 -10.5t21.5 -4h37h67h81h80h64h36q23 0 34 12t2 38q-5 13 -9.5 30.5t-9.5 34.5q-5 19 -11 39h-368zM336 498v228q0 11 2.5 23t10 21.5t20.5 15.5t34 6h188q31 0 51.5 -14.5t20.5 -52.5v-227h-327z" />
    

    
    <glyph glyph-name="caidan" unicode="&#58880;" d="M0 800h1000v-1000H0V800L0 800zM777.9975 577.9975H222.0025c-15.3375 0-28.335-5.4975-39.005-16.4988-10.6638-11.0013-15.995-24.165-15.995-39.4963 0-15.3375 5.3313-28.335 15.995-39.005 10.67-10.6638 23.6675-15.995 39.005-15.995h555.995c15.3375 0 28.335 5.3313 39.0037 15.995 10.6638 10.67 15.9963 23.6675 15.9963 39.005 0 15.3313-5.3325 28.495-15.9963 39.4963C806.3325 572.5 793.335 577.9975 777.9975 577.9975L777.9975 577.9975zM777.9975 356.0012H222.0025c-15.3375 0-28.335-5.5037-39.005-16.4988-10.6638-11.0013-15.995-24.17-15.995-39.5025 0-15.3325 5.3313-28.5013 15.995-39.5025 10.67-10.995 23.6675-16.4988 39.005-16.4988h555.995c15.3375 0 28.335 5.5037 39.0037 16.4988 10.6638 11.0013 15.9963 24.17 15.9963 39.5025 0 15.3325-5.3325 28.5013-15.9963 39.5025C806.3325 350.4975 793.335 356.0012 777.9975 356.0012L777.9975 356.0012zM777.9975 132.9975H222.0025c-15.3375 0-28.335-5.3325-39.005-15.995-10.6638-10.67-15.995-23.6688-15.995-39.005 0-15.3325 5.3313-28.495 15.995-39.4975 10.67-11.0013 23.6675-16.4975 39.005-16.4975h555.995c15.3375 0 28.335 5.4963 39.0037 16.4975 10.6638 11.0025 15.9963 24.165 15.9963 39.4975 0 15.3375-5.3325 28.335-15.9963 39.005C806.3325 127.6662 793.335 132.9975 777.9975 132.9975L777.9975 132.9975zM777.9975 132.9975"  horiz-adv-x="1000" />

    
    <glyph glyph-name="xingyexinwen" unicode="&#58893;" d="M867.2925 649.7589c22.2768 0 40.3333-18.0578 40.3333-40.3327 0-22.2759-18.0565-40.3337-40.3333-40.3337H163.1680619445413c-22.2768 0-40.3343 18.0578-40.3343 40.3337 0 22.2749 18.0575 40.3327 40.3343 40.3327H867.2925346554246M867.2925 689.7318H163.1680619445413c-44.2828 0-80.3088-36.0246-80.3088-80.3056 0-44.281 36.0261-80.3066 80.3088-80.3066h704.1244727108832c44.2828 0 80.3078 36.0256 80.3078 80.3066C947.6014 653.7072 911.5753 689.7318 867.2925 689.7318L867.2925 689.7318zM551.3398 399.1098c22.2768 0 40.3333-18.0568 40.3333-40.3327s-18.0565-40.3327-40.3333-40.3327H162.9761841706833c-22.2758 0-40.3343 18.0568-40.3343 40.3327s18.0585 40.3327 40.3343 40.3327H551.339796549598M551.3398 439.0827H162.9761841706833c-44.2828 0-80.3088-36.0246-80.3088-80.3056s36.0261-80.3056 80.3088-80.3056h388.36361237891464c44.2828 0 80.3078 36.0256 80.3078 80.3056S595.6216 439.0827 551.3398 439.0827L551.3398 439.0827zM716.1328 149.0453c22.2768 0 40.3353-18.0578 40.3353-40.3317 0-22.2759-18.0585-40.3317-40.3353-40.3317H164.1284501772371c-22.2768 0-40.3353 18.0558-40.3353 40.3317 0 22.2739 18.0585 40.3317 40.3353 40.3317H716.1328233914996M716.1328 189.0182H164.1284501772371c-44.2828 0-80.3098-36.0246-80.3098-80.3046s36.0271-80.3046 80.3098-80.3046h552.0043732142625c44.2848 0 80.3098 36.0246 80.3098 80.3046S760.4176 189.0182 716.1328 189.0182L716.1328 189.0182z"  horiz-adv-x="1000" />

    
    <glyph glyph-name="cmstubiaozitihua15" unicode="&#59226;" d="M128.192 559.392c6.72 0 11.648 0 16.512 0 245.632 0 491.136-0.064 736.96 0.192C892.672 559.584 896 556.896 896 545.376c-0.32-163.968-0.32-327.744 0-491.712 0-10.368-3.136-13.248-13.184-13.248-247.232 0.32-494.592 0.192-741.696 0.128C132.352 40.544 128 41.312 128 52.384c0.384 163.392 0.192 326.912 0.192 490.304C128.192 547.616 128.192 552.544 128.192 559.392zM188.8 525.664C193.408 520.8 195.648 518.368 197.952 516.256 280.384 440.352 362.88 364.448 445.376 288.672c13.312-12.096 26.752-24.32 41.408-34.688 16.768-11.712 35.264-11.968 51.584 0.832 17.28 13.312 33.408 27.776 49.408 42.496 78.656 72 157.184 144.192 235.776 216.512 3.328 3.008 6.016 6.656 10.496 11.904C618.048 525.664 405.248 525.664 188.8 525.664zM187.904 78.496c1.152-1.408 2.304-3.008 3.648-4.48 213.888 0 427.648 0 641.408 0 0.832 1.344 1.536 2.496 2.368 3.84-4.544 3.392-9.344 6.528-13.568 10.304-65.984 60.48-132.16 120.832-197.76 181.76C615.488 277.728 610.688 276.576 602.944 269.408 586.24 254.24 569.024 239.52 551.04 225.76 525.888 206.816 499.2 206.112 473.792 225.312c-18.624 14.08-36.288 29.568-53.696 45.184C412.672 277.152 408.192 277.088 400.768 270.304c-66.304-61.376-132.992-122.432-199.616-183.296C197.376 83.552 192.256 81.376 187.904 78.496zM387.648 300C313.088 368.224 240.128 435.36 164.992 504.16c0-137.536 0-271.552 0-408.576C240.448 164.704 313.344 231.84 387.648 300zM859.648 499.68c-1.152 0.704-2.368 1.344-3.456 1.92-72.896-66.88-145.536-133.888-219.392-201.664 74.496-68.48 147.392-135.488 222.784-204.608C859.648 232.736 859.648 366.304 859.648 499.68z"  horiz-adv-x="1024" />

    
    <glyph glyph-name="gengduo1" unicode="&#58938;" d="M192.06741 395.979982c52.92335 0 95.979982-43.057655 95.979982-95.979982S244.99076 204.020018 192.06741 204.020018s-95.979982 43.057655-95.979982 95.979982S139.14406 395.979982 192.06741 395.979982M192.06741 427.972627c-70.677713 0-127.972627-57.292867-127.972627-127.972627 0-70.678736 57.294914-127.972627 127.972627-127.972627 70.678736 0 127.972627 57.294914 127.972627 127.972627C320.040037 370.680782 262.746146 427.972627 192.06741 427.972627L192.06741 427.972627zM512 395.979982c52.92335 0 95.979982-43.057655 95.979982-95.979982S564.92335 204.020018 512 204.020018s-95.979982 43.057655-95.979982 95.979982S459.07665 395.979982 512 395.979982M512 427.972627c-70.677713 0-127.972627-57.292867-127.972627-127.972627 0-70.678736 57.294914-127.972627 127.972627-127.972627 70.678736 0 127.972627 57.294914 127.972627 127.972627C639.972627 370.680782 582.678736 427.972627 512 427.972627L512 427.972627zM831.931566 395.979982c52.92335 0 95.979982-43.057655 95.979982-95.979982S884.85594 204.020018 831.931566 204.020018c-52.92335 0-95.979982 43.057655-95.979982 95.979982S779.008216 395.979982 831.931566 395.979982M831.931566 427.972627c-70.677713 0-127.972627-57.292867-127.972627-127.972627 0-70.678736 57.294914-127.972627 127.972627-127.972627 70.678736 0 127.972627 57.294914 127.972627 127.972627C959.905216 370.680782 902.611326 427.972627 831.931566 427.972627L831.931566 427.972627z"  horiz-adv-x="1024" />

    
    <glyph glyph-name="3" unicode="&#58882;" d="M511.999488 812 61.41935 304.863774 513.729899-202.272451 966.040449 300Z"  horiz-adv-x="1024" />

    
    <glyph glyph-name="lianjie" unicode="&#58908;" d="M582.239997 232.857032c-56.713997 0-113.426994 21.589999-156.609992 64.772997-11.728999 11.726999-11.728999 30.792998 0 42.520998 11.728999 11.726999 30.791998 11.726999 42.520998 0 62.910997-62.909997 165.212992-62.909997 228.121989 0L914.94998 558.830016c62.910997 62.909997 62.910997 165.211992 0 228.121989-62.907997 62.909997-165.210992 62.909997-228.119989 0L502.313 602.434014c-11.728999-11.727999-30.792998-11.727999-42.521998 0-11.726999 11.727999-11.726999 30.792998 0 42.520998L644.308994 829.472003c86.364996 86.364996 226.858989 86.364996 313.163985 0 86.304996-86.363996 86.363996-226.857989 0-313.163985L738.794989 297.631029c-43.183998-43.183998-99.898995-64.772997-156.612992-64.772997L582.239997 232.858032zM221.386014-127.99995c-56.714997 0-113.429994 21.591999-156.611992 64.772997-86.363996 86.364996-86.363996 226.856989 0 313.163985l218.678989 218.678989c86.364996 86.364996 226.858989 86.364996 313.162985 0 11.727999-11.727999 11.727999-30.791998 0-42.520998-11.727999-11.726999-30.792998-11.726999-42.518998 0-62.910997 62.909997-165.213992 62.909997-228.122989 0L107.29402 207.416034c-62.909997-62.907997-62.909997-165.212992 0-228.120989 62.908997-62.907997 165.211992-62.907997 228.121989 0l184.516991 184.517991c11.728999 11.728999 30.793998 11.728999 42.520998 0 11.728999-11.726999 11.728999-30.790998 0-42.520998L377.938007-63.226953C334.755009-106.407951 278.040011-127.99995 221.325014-127.99995L221.386014-127.99995z"  horiz-adv-x="1024" />

    
    <glyph glyph-name="tuichu" unicode="&#59413;" d="M561.022507-65.775684 102.378715-65.775684 102.378715 668.05561l458.643792 0 0-183.457312 73.383334 0L634.405841 657.049952c0 46.594201-37.791721 84.387969-84.409458 84.387969L113.40484 741.437921c-46.616714 0-84.409458-37.793768-84.409458-84.387969l0-711.816908c0-46.599318 37.791721-84.392062 84.409458-84.392062l436.591543 0c46.616714 0 84.409458 37.793768 84.409458 84.392062L634.405841 117.682651l-73.383334 0L561.022507-65.775684zM949.127755 342.678008 790.161231 501.62202 745.396701 456.859537 864.443028 337.83163 505.985006 337.83163 505.985006 264.448296 870.88167 264.448296 745.396701 138.983793 790.161231 94.237683 960.39231 264.448296 993.871819 297.928828Z"  horiz-adv-x="1024" />

    
    <glyph glyph-name="qiye" unicode="&#58957;" d="M765.100889-52.083246 765.100889 580.736365l237.054523 0 0-630.527275L765.100889-49.79091 765.100889-52.083246 765.100889-52.083246zM132.281278-52.083246 132.281278 817.790888l552.31816 0 0-867.581798L132.281278-49.79091 132.281278-52.083246 132.281278-52.083246zM1080.364527-52.083246 1080.364527 659.080323 765.100889 659.080323 765.100889 896.000003 53.93732 896.000003l0-945.790912L14.832763-49.79091l0-78.209115 1104.636321 0 0 78.209115-39.104557 0L1080.364527-52.083246 1080.364527-52.083246zM449.837252 304.577285l158.710565 0 0-117.313672L449.837252 187.263613 449.837252 304.577285 449.837252 304.577285zM212.782729 304.577285l158.710565 0 0-117.313672L212.782729 187.263613 212.782729 304.577285 212.782729 304.577285zM843.310004 304.577285l78.209115 0 0-117.313672-78.209115 0L843.310004 304.577285 843.310004 304.577285zM843.310004 500.234915l78.209115 0 0-117.313672-78.209115 0L843.310004 500.234915 843.310004 500.234915zM449.837252 500.234915l158.710565 0 0-117.313672L449.837252 382.921243 449.837252 500.234915 449.837252 500.234915zM212.782729 500.234915l158.710565 0 0-117.313672L212.782729 382.921243 212.782729 500.234915 212.782729 500.234915zM449.837252 698.050037l158.710565 0 0-117.313672L449.837252 580.736365 449.837252 698.050037 449.837252 698.050037zM212.782729 698.050037l158.710565 0 0-117.313672L212.782729 580.736365 212.782729 698.050037 212.782729 698.050037zM212.782729 698.050037"  horiz-adv-x="1136" />

    
    <glyph glyph-name="prev" unicode="&#59041;" d="M64.007291 385.893116c0-246.287289 200.373587-446.664969 446.671109-446.664969 246.25966 0 446.633247 200.37768 446.633247 446.664969 0 246.26887-200.373587 446.64348-446.633247 446.64348C264.379854 832.535573 64.007291 632.160963 64.007291 385.893116zM117.551788 385.893116c0 216.763882 176.344311 393.098983 393.126612 393.098983 216.754672 0 393.08875-176.335101 393.08875-393.098983 0-216.762859-176.333054-393.121496-393.08875-393.121496C293.896098-7.228379 117.551788 169.129234 117.551788 385.893116zM281.585725 404.832468c-10.460236-10.458189-10.460236-27.40107 0-37.851073l210.114438-210.171744c5.234211-5.225001 12.06785-7.842619 18.929118-7.842619 6.843872 0 13.696953 2.617617 18.931165 7.842619 10.44898 10.458189 10.44898 27.400047 0 37.861306L365.136629 359.131613l355.655186 0c14.774495 0 26.771737 11.998265 26.771737 26.771737 0 14.781658-11.998265 26.771737-26.771737 26.771737L365.136629 412.675086l164.423817 164.422793c10.44898 10.458189 10.44898 27.40107 0 37.860283-10.459213 10.458189-27.402093 10.458189-37.860283 0L281.585725 404.832468z"  horiz-adv-x="1024" />

    
    <glyph glyph-name="iconset0401" unicode="&#59160;" d="M512 853.333333C253.866667 853.333333 42.666667 644.266667 42.666667 384s211.2-469.333333 469.333333-469.333333c260.266667 0 469.333333 209.066667 469.333333 469.333333S772.266667 853.333333 512 853.333333zM386.133333 791.466667c-8.533333-10.666667-17.066667-21.333333-25.6-32 0-2.133333-2.133333-2.133333-2.133333-4.266667-17.066667-23.466667-32-51.2-44.8-81.066667 0-2.133333-2.133333-4.266667-2.133333-4.266667 0-2.133333-2.133333-4.266667-2.133333-6.4-25.6 12.8-49.066667 27.733333-70.4 44.8C279.466667 746.666667 330.666667 774.4 386.133333 791.466667zM204.8 680.533333c25.6-21.333333 53.333333-40.533333 87.466667-55.466667 0-2.133333-2.133333-4.266667-2.133333-4.266667-10.666667-32-19.2-68.266667-23.466667-104.533333 0-4.266667-2.133333-8.533333-2.133333-14.933333-2.133333-14.933333-4.266667-27.733333-4.266667-42.666667 0-6.4 0-10.666667-2.133333-17.066667 0-12.8 0-23.466667-2.133333-36.266667L85.333333 405.333333C91.733333 512 136.533333 608 204.8 680.533333zM85.333333 362.666667l170.666667 0c0-12.8 0-25.6 2.133333-36.266667 0-6.4 0-10.666667 2.133333-17.066667 2.133333-14.933333 2.133333-27.733333 4.266667-42.666667 0-4.266667 2.133333-8.533333 2.133333-14.933333 6.4-36.266667 14.933333-72.533333 23.466667-104.533333 0-2.133333 2.133333-4.266667 2.133333-4.266667-32-14.933333-61.866667-34.133333-87.466667-55.466667C136.533333 160 91.733333 256 85.333333 362.666667zM236.8 59.733333c21.333333 17.066667 44.8 32 70.4 44.8 0-2.133333 2.133333-4.266667 2.133333-6.4 0-2.133333 2.133333-4.266667 2.133333-4.266667 12.8-29.866667 27.733333-57.6 44.8-81.066667 0-2.133333 2.133333-2.133333 2.133333-4.266667 8.533333-10.666667 17.066667-21.333333 25.6-32C330.666667-6.4 279.466667 21.333333 236.8 59.733333zM490.666667-40.533333c-59.733333 12.8-110.933333 72.533333-145.066667 160 44.8 17.066667 93.866667 25.6 145.066667 27.733333L490.666667-40.533333zM490.666667 192c-57.6-2.133333-110.933333-12.8-160-29.866667-19.2 59.733333-29.866667 128-32 202.666667l192 0L490.666667 192zM490.666667 405.333333l-192 0c2.133333 74.666667 12.8 142.933333 32 202.666667 49.066667-17.066667 102.4-27.733333 160-29.866667L490.666667 405.333333zM490.666667 618.666667c-53.333333 2.133333-102.4 12.8-145.066667 27.733333 34.133333 89.6 87.466667 149.333333 145.066667 160L490.666667 618.666667zM938.666667 405.333333l-170.666667 0c0 12.8 0 25.6-2.133333 36.266667 0 6.4 0 10.666667-2.133333 17.066667-2.133333 14.933333-2.133333 27.733333-4.266667 42.666667 0 4.266667-2.133333 8.533333-2.133333 14.933333-6.4 36.266667-14.933333 72.533333-23.466667 104.533333 0 2.133333-2.133333 4.266667-2.133333 4.266667 32 14.933333 61.866667 34.133333 87.466667 55.466667C887.466667 608 932.266667 512 938.666667 405.333333zM787.2 708.266667c-21.333333-17.066667-44.8-32-70.4-44.8 0 2.133333-2.133333 4.266667-2.133333 6.4 0 2.133333-2.133333 4.266667-2.133333 4.266667-12.8 29.866667-27.733333 57.6-44.8 81.066667 0 2.133333-2.133333 2.133333-2.133333 4.266667-8.533333 10.666667-17.066667 21.333333-25.6 32C693.333333 774.4 744.533333 746.666667 787.2 708.266667zM533.333333 808.533333c59.733333-12.8 110.933333-72.533333 145.066667-160-44.8-17.066667-93.866667-25.6-145.066667-27.733333L533.333333 808.533333zM533.333333 576c57.6 2.133333 110.933333 12.8 160 29.866667 19.2-59.733333 29.866667-128 32-202.666667l-192 0L533.333333 576zM533.333333 362.666667l192 0c-2.133333-74.666667-12.8-142.933333-32-202.666667-49.066667 17.066667-102.4 27.733333-160 29.866667L533.333333 362.666667zM533.333333-40.533333 533.333333 149.333333c53.333333-2.133333 102.4-12.8 145.066667-27.733333C644.266667 32 593.066667-27.733333 533.333333-40.533333zM637.866667-23.466667c8.533333 10.666667 17.066667 21.333333 25.6 32 0 2.133333 2.133333 2.133333 2.133333 4.266667 17.066667 23.466667 32 51.2 44.8 81.066667 0 2.133333 2.133333 4.266667 2.133333 4.266667 0 2.133333 2.133333 4.266667 2.133333 6.4 25.6-12.8 49.066667-27.733333 70.4-44.8C744.533333 21.333333 693.333333-6.4 637.866667-23.466667zM819.2 87.466667c-25.6 21.333333-53.333333 40.533333-87.466667 55.466667 0 2.133333 2.133333 4.266667 2.133333 4.266667 10.666667 32 19.2 68.266667 23.466667 104.533333 0 4.266667 2.133333 8.533333 2.133333 14.933333 2.133333 14.933333 4.266667 27.733333 4.266667 42.666667 0 6.4 0 10.666667 2.133333 17.066667 0 12.8 0 23.466667 2.133333 36.266667l170.666667 0C932.266667 256 887.466667 160 819.2 87.466667z"  horiz-adv-x="1024" />

    
    <glyph glyph-name="dianzan" unicode="&#58910;" d="M631.647007 533.343353l0-0.00921c0.01842 0.194428 0.026606 0.37146 0.034792 0.548492L631.647007 533.343353zM836.008418 422.022988c-21.369703 38.869263-54.067406 60.83453-98.629321 62.909795-26.978445 1.254573-54.052057 0.487094-81.081667 0.627287-1.206478 0.008186-2.409886 0.004093-3.672646 0.004093 0.059352 0.6191 0.067538 0.954745 0.130983 1.279133 3.826142 19.290345 6.208399 38.765909 7.806803 58.356083 1.51961 18.59552 2.558265 37.222763 2.882654 55.866379 0.275269 16.064884 1.802042 32.230052-0.515746 48.187489-4.205788 28.919656-19.566638 50.585095-45.704948 63.572898-28.633131 14.230096-57.125045 12.359492-83.975577-4.912893-19.96982-12.851703-32.030507-31.531134-36.570917-54.954613-1.930979-9.953699-1.514493-20.014846-1.482771-30.051433 0.083911-26.758434-4.828982-52.557006-17.328667-76.244498-32.41834-61.427024-83.575464-93.305059-153.204287-94.603635-26.909883-0.500397-53.839209-0.092098-80.757279-0.072655-7.981788 0.004093-15.836687-0.931209-23.37129-3.601015-28.580942-10.129708-46.041616-34.912138-46.052872-65.447595-0.032746-89.027639-0.004093-178.055279-0.016373-267.082918 0-9.134031 1.211595-18.104333 4.89652-26.473955 11.276834-25.615401 30.774911-40.860617 58.896388-42.028209 29.103852-1.206478 58.296731-0.407276 87.448678-0.455371 2.797719-0.004093 5.559623 0.415462 8.094352 1.746784 7.03523 3.701299 9.530051 9.781784 9.525957 17.432021-0.039909 114.498754-0.028653 228.992391-0.008186 343.491145 0.004093 3.097548-1.287319 7.123234 0.543376 9.033747 1.606591 1.679245 5.64865 1.003863 8.606005 1.407046 31.311123 4.27742 60.271712 14.886035 86.461187 32.634258 38.115086 25.822109 64.716954 60.534701 79.574337 104.161315 7.858992 23.072485 10.816347 46.864354 10.505261 71.155597-0.075725 5.791913-0.268106 11.583826 0.571005 17.383926 4.189416 28.941146 33.405831 48.602951 61.758576 41.443901 23.443945-5.915733 38.885636-25.7822 38.845727-50.15326-0.052189-30.16809-0.831948-60.315714-3.461845-90.375334-2.118244-24.227798-4.548596-48.435129-12.391215-71.690786-0.975211-2.882654-1.291412-5.89629-0.635473-8.909927 1.877767-8.622378 8.497535-13.635555 18.059308-13.679557 32.506345-0.163729 65.011666-0.343831 97.518011-0.443092 11.120268-0.035816 22.036899-1.059122 32.506345-5.189186 41.358967-16.316617 62.933331-60.626799 50.42546-103.377462-5.192256-17.748223-11.304464-35.184337-17.524119-52.580542C772.947174 229.589234 749.34257 169.498648 725.886345 109.350756c-3.209088-8.226359-8.918114-14.290471-15.920598-19.323091-10.349719-7.442506-22.233374-9.353019-34.596959-9.353019-81.541131-0.016373-163.085332-0.008186-244.629533-0.01228-1.563612 0-3.13848 0.031722-4.685719-0.1361-12.502755-1.367137-19.310811-14.937201-12.751419-25.558096 3.857864-6.240121 9.821693-8.106632 16.905018-8.102538 82.21242 0.071631 164.428933 0.048095 246.64033 0.048095 20.214391 0 38.838563 5.167696 55.054897 17.535375 10.593266 8.083096 19.48682 17.652032 24.427342 30.371728 8.993838 23.13593 18.119683 46.216601 27.073612 69.368904 19.631106 50.76929 39.09746 101.598956 56.237839 153.284105 4.604878 13.882172 8.874111 27.868721 9.685593 42.578748C850.526063 381.881756 846.588381 402.775622 836.008418 422.022988L836.008418 422.022988zM305.891805 80.574363c-20.774139 0.127913-41.552371 0.048095-62.326511 0.071631-20.594037 0.024559-35.352159 14.530948-35.363416 35.088146-0.060375 89.132016-0.064468 178.264033 0.004093 267.390933 0.011256 20.230764 14.546298 34.884508 34.756595 35.056424 21.217231 0.184195 42.442648-0.019443 63.663972 0.115634 2.918469 0.016373 2.874467-1.334391 2.874467-3.433192-0.035816-55.178717-0.027629-110.357434-0.027629-165.532057 0-55.066153-0.032746-110.129236 0.079818-165.19539C309.561381 81.102389 308.729433 80.55492 305.891805 80.574363L305.891805 80.574363zM305.891805 80.574363"  horiz-adv-x="1024" />

    
    <glyph glyph-name="xinwenzhongxin" unicode="&#59062;" d="M839.232-127.232c-10.624 29.632-38.656 51.008-72 51.008-33.28 0-61.376-21.376-71.872-51.008L583.872-127.232c-10.496 29.632-38.528 51.008-71.808 51.008-33.344 0-61.44-21.376-71.936-51.008L328.64-127.232c-10.496 29.632-38.592 51.008-71.936 51.008-33.28 0-61.312-21.376-71.872-51.008L78.08-127.232 78.08 842.752c0 28.224 22.784 51.072 51.008 51.072l765.76 0c28.224 0 51.136-22.784 51.136-51.072l0-969.984L839.232-127.232 839.232-127.232zM205.696 102.528l229.76 0 0 433.92-229.76 0L205.696 102.528 205.696 102.528zM818.368 715.136 205.696 715.136l0-76.608 612.672 0L818.368 715.136 818.368 715.136zM818.368 536.448 537.6 536.448l0-76.544 280.768 0L818.368 536.448 818.368 536.448zM818.368 357.76 537.6 357.76l0-76.672 280.768 0L818.368 357.76 818.368 357.76zM818.368 179.008 537.6 179.008l0-76.48 280.768 0L818.368 179.008 818.368 179.008zM818.368 179.008"  horiz-adv-x="1024" />

    
    <glyph glyph-name="zhinanzhen" unicode="&#59072;" d="M512 846.499c-256.259 0-464-207.739-464-464 0-256.258 207.741-463.998 464-463.998 256.261 0 464 207.741 464 463.998C976 638.76 768.261 846.499 512 846.499zM512-1.499c-212.077 0-384 171.923-384 383.998 0 212.078 171.923 384.002 384 384.002s384-171.923 384-384.002C896 170.424 724.077-1.499 512-1.499zM421.49 473.011c0 0-144.165-321.622-140.654-321.622 0.035 0 0.085 0.032 0.15 0.097C287.56 158.061 602.51 291.99 602.51 291.99l0 0c0.002 0.004 133.93 314.95 140.504 321.525C749.587 620.088 421.49 473.011 421.49 473.011zM453.27 441.231l112.586-112.586c-31.483-13.58-189.732-86.34-196.039-89.064C385.458 274.951 435.805 401.965 453.27 441.231z"  horiz-adv-x="1024" />

    
    <glyph glyph-name="next" unicode="&#58898;" d="M445.525333 140.586667 384.938667 200.746667 567.936 384.938667 385.109333 567.125333 445.354667 627.541333 688.512 385.237333Z"  horiz-adv-x="1024" />

    
    <glyph glyph-name="prev2" unicode="&#58914;" d="M636 805.824l-380.32-400c-17.504-18.4-17.504-48.256 0-66.656l380.32-399.968c17.504-18.432 45.888-18.432 63.36 0l63.392 66.656c17.504 18.4 17.504 48.256 0 66.656l-285.216 300 285.216 300c17.504 18.4 17.504 48.256 0 66.656l-63.392 66.688c-17.472 18.4-45.856 18.4-63.36 0l0 0z"  horiz-adv-x="1024" />

    
    <glyph glyph-name="next6" unicode="&#58918;" d="M482.016617 98.190579l259.8287 259.827677c15.98302 15.985066 15.98302 35.979446 0 51.963489l-259.8287 259.827677c-5.996574 5.996574-13.988596 9.987468-23.976064 9.987468-9.997702 0-19.995403-3.990894-25.981744-9.987468l-57.970296-59.965743c-7.992021-5.996574-11.982916-13.988596-11.982916-23.976064 0-11.993149 3.990894-19.995403 11.982916-25.981744l173.890422-175.885869-173.890422-175.87666c-7.992021-5.995551-11.982916-13.998829-11.982916-25.989931 0-9.989515 3.990894-17.97949 11.982916-23.978111l57.970296-59.965743c5.986341-5.995551 15.984043-9.987468 25.981744-9.987468C468.026998 88.20311 476.019019 92.195028 482.016617 98.190579L482.016617 98.190579zM891.737162 164.15392c-39.969317-65.963341-93.928253-119.922277-159.891593-159.891593-63.956637-37.975916-137.900743-57.961086-219.847104-57.961086-81.94636 0-155.889443 19.984147-219.84608 57.961086-65.962318 39.969317-119.921253 93.928253-159.891593 159.891593-37.974893 63.956637-57.960063 137.900743-57.960063 219.84608 0 81.94636 19.98517 155.890466 57.960063 219.847104 39.97034 65.962318 93.929276 119.921253 159.891593 159.891593 63.956637 37.974893 137.900743 57.960063 219.84608 57.960063 81.94636 0 155.890466-19.98517 219.847104-57.960063 65.963341-39.97034 119.922277-93.929276 159.891593-159.891593 37.975916-63.956637 57.961086-137.900743 57.961086-219.847104C949.697225 302.054663 929.713079 228.110557 891.737162 164.15392z"  horiz-adv-x="1024" />

    
    <glyph glyph-name="dingwei1" unicode="&#59027;" d="M515.417331-82.654232c-58.611909-0.358157-352.582197 443.447694-352.582197 591.852676 0 196.158588 157.851121 355.080088 352.582197 355.080088 194.685028 0 352.537172-158.920476 352.537172-355.080088C867.954503 362.747977 573.099055-83.01239 515.417331-82.654232zM515.417331 824.013479c-172.369789 0-312.049039-140.391471-312.049039-313.38957 0-131.126456 260.158205-533.059642 312.049039-532.87954 51.045583-0.181125 312.048015 403.532613 312.048015 532.87954C827.465346 683.622008 687.744141 824.013479 515.417331 824.013479zM515.417331 361.148549c-81.151251 0-146.938584 66.276473-146.938584 148.049894 0 81.598436 65.787332 147.874909 146.938584 147.874909 81.108273 0 146.895605-66.276473 146.895605-147.874909C662.312936 427.425022 596.52458 361.148549 515.417331 361.148549zM515.417331 604.517369c-51.715849 0-93.622284-42.045605-93.622284-93.89346 0-52.022841 41.907459-94.069469 93.622284-94.069469 51.66673 0 93.580329 42.045605 93.580329 94.069469C608.99766 562.471764 567.084061 604.517369 515.417331 604.517369z"  horiz-adv-x="1024" />

    
    <glyph glyph-name="icon7" unicode="&#58896;" d="M928.515299 432.76975c16.298198 0 29.540803-13.223163 29.540803-29.540803 0-16.340153-13.242606-29.540803-29.540803-29.540803L166.288281 373.688143l244.961084-244.970294c5.335519-5.355985 8.661264-12.742209 8.661264-20.880563 0-16.318664-13.223163-29.540803-29.540803-29.540803-8.15882 0-15.545044 3.285836-20.87954 8.661264L74.097602 382.348384c-5.366218 5.355985-8.661264 12.741185-8.661264 20.87954 0 8.139378 3.295046 15.523555 8.661264 20.87954l295.392684 295.392684c5.334495 5.355985 12.720719 8.639774 20.87954 8.639774 16.318664 0 29.540803-13.201673 29.540803-29.540803 0-8.117888-3.325745-15.502066-8.661264-20.87954L166.288281 432.76975 928.515299 432.76975"  horiz-adv-x="1024" />

    
    <glyph glyph-name="fanhui" unicode="&#59069;" d="M622.650611 611.098251 447.745069 611.098251 447.745069 753.176131 63.980685 561.294962l383.76336-191.882192L447.744046 511.165238l189.391465 0c149.914358 0 224.855164-62.789045 224.855164-188.368158 0-129.928165-77.435627-194.876386-232.338602-194.876386L187.952184 127.920694l0-99.93199L634.146433 27.988704c211.184817 0 316.777737 95.104031 316.777737 285.311071C950.924169 511.821177 841.510224 611.098251 622.650611 611.098251z"  horiz-adv-x="1024" />

    
    <glyph glyph-name="next1" unicode="&#59019;" d="M296.842-122.809l478.851 494.236c6.706 6.949 6.706 18.197 0 25.119l-24.253 25.119c-6.706 6.949-17.548 6.949-24.252 0l-478.851-494.209c-6.706-6.949-6.706-18.197 0-25.119l24.253-25.119c6.678-6.949 17.548-6.949 24.253-0.028zM751.439 346.308l24.253 25.119c6.706 6.949 6.706 18.197 0 25.119l-478.878 494.237c-6.706 6.949-17.548 6.949-24.252 0l-24.253-25.119c-6.706-6.949-6.706-18.197 0-25.119l478.878-494.237c6.706-6.949 17.575-6.949 24.252 0z"  horiz-adv-x="1024" />

    
    <glyph glyph-name="xinxi" unicode="&#58976;" d="M241.68448-103.67488c-4.7104 0-9.40544 1.30048-13.53728 3.87072-7.52128 4.6848-12.0832 12.92288-12.06784 21.7856l0.36352 172.61056C93.4656 176.35328 20.48 303.86688 20.48 438.29248 20.48 677.25824 245.56544 871.67488 522.24 871.67488c276.66944 0 501.76-194.41664 501.76-433.38752 0-238.96576-225.09056-433.3824-501.76-433.3824-23.45472 0-46.96064 1.40288-70.03136 4.18304-55.79264-39.13216-193.04448-107.0848-199.18848-110.12096C249.44128-102.79424 245.5552-103.67488 241.68448-103.67488zM267.66848 105.9072l-0.30208-142.336c48.69632 24.92928 131.65056 68.6592 162.25792 92.44672 5.4528 4.23936 12.37504 6.10304 19.24096 5.14048 24.04864-3.34336 48.73728-5.0432 73.37472-5.0432 248.43776 0 450.56 171.4432 450.56 382.1824 0 210.7392-202.12224 382.18752-450.56 382.18752S71.68 649.03168 71.68 438.29248c0-120.99072 68.76672-236.14464 183.95136-308.0448C264.1664 124.91776 268.56448 115.328 267.66848 105.9072zM279.04 451.00032m-46.08 0a9 9 0 1 0 92.16 0 9 9 0 1 0-92.16 0ZM524.8 451.00032m-46.08 0a9 9 0 1 0 92.16 0 9 9 0 1 0-92.16 0ZM768 451.00032m-46.08 0a9 9 0 1 0 92.16 0 9 9 0 1 0-92.16 0Z"  horiz-adv-x="1024" />

    
    <glyph glyph-name="lianxiwomen" unicode="&#58917;" d="M692.044-11.99c-50.823 0-116.435 33.972-162.532 62.48-61.727 38.171-128.228 90.978-187.255 148.687l-0.215 0.21-18.74 18.813c-57.514 59.226-110.135 125.963-148.176 187.902-28.405 46.254-62.269 112.094-62.269 163.091 0 54.575 38.893 112.498 55.614 134.868 13.045 17.459 58.634 74.42 97.364 74.42 15.904 0 33.029-10.444 55.54-33.871 19.909-20.711 39.013-46.46 51.534-64.412 16.813-24.1 32.364-49.335 43.792-71.059 18.5-35.17 20.64-50.256 20.64-58.54 0-16.72-8.703-31.226-25.867-43.106-11.302-7.82-24.867-13.709-37.984-19.404-8.85-3.841-22.976-9.969-28.368-14.282 1.882-7.99 10.101-27.289 32.308-60.006 20.692-30.485 47.453-63.523 71.629-88.435 24.822-24.255 57.743-51.111 88.134-71.877 32.594-22.276 51.822-30.528 59.794-32.416 4.29 5.406 10.404 19.582 14.229 28.458 5.676 13.166 11.542 26.781 19.341 38.123 11.841 17.222 26.294 25.951 42.958 25.951 8.26 0 23.29-2.148 58.343-20.707 21.648-11.467 46.8-27.071 70.815-43.943 17.887-12.565 43.548-31.738 64.192-51.711 23.341-22.591 33.75-39.773 33.75-55.737 0-38.861-56.762-84.605-74.157-97.695-22.301-16.781-80.028-55.805-134.415-55.805l0 0 0 0zM374.821 232.5c56.627-55.348 120.22-105.871 179.098-142.274 57.077-35.298 107.423-55.545 138.125-55.545 27.35 0 66.337 16.762 104.302 44.829 16.64 12.31 31.785 26.015 42.649 38.593 10.191 11.809 13.917 19.51 14.864 22.62-3.941 8.492-27.335 35.039-81.934 72.833-21.419 14.825-43.562 28.45-62.351 38.365-23.594 12.445-33.428 14.594-35.676 14.949-0.876-0.603-3.444-2.758-7.351-9.329-4.373-7.358-8.575-17.107-12.64-26.537-5.001-11.61-10.177-23.61-16.525-33.298-10.322-15.751-22.995-23.746-37.668-23.754-0.262 0-0.542 0.004-0.826 0.015-7.137 0.151-28.875 0.613-87.887 40.941-32.578 22.272-67.961 51.146-94.629 77.251l-0.417 0.411c-26.009 26.773-54.782 62.269-76.975 94.956-40.195 59.216-40.662 81.028-40.812 88.197-0.32 14.99 7.566 27.926 23.423 38.467 9.698 6.441 21.76 11.677 33.423 16.742 9.396 4.076 19.109 8.292 26.441 12.676 6.547 3.915 8.703 6.498 9.297 7.376-0.353 2.258-2.494 12.125-14.898 35.802-9.878 18.849-23.459 41.074-38.228 62.563-37.668 54.795-64.124 78.265-72.583 82.22-3.101-0.954-10.775-4.693-22.542-14.918-12.539-10.893-26.197-26.098-38.457-42.797-27.974-38.087-44.674-77.213-44.674-104.658 0-30.805 20.172-81.322 55.346-138.599 36.286-59.081 86.631-122.894 141.787-179.715l18.318-18.382zM651.641 399.98c-8.117 0-15.308 5.839-16.764 14.139-4.172 23.738-17.871 44.363-38.573 58.077-20.997 13.905-46.66 19.069-72.271 14.538-9.275-1.643-18.113 4.573-19.747 13.875-1.634 9.302 4.556 18.176 13.826 19.815 34.23 6.058 68.669-0.932 96.97-19.68 28.601-18.942 47.554-47.595 53.37-80.686 1.634-9.302-4.557-18.176-13.827-19.814-1.003-0.177-1.998-0.263-2.982-0.263l0 0zM754.26 444.153c-8.113 0-15.308 5.837-16.764 14.133-8.094 46.068-34.623 86.057-74.694 112.599-40.369 26.736-89.652 36.674-138.77 27.984-9.275-1.639-18.11 4.573-19.747 13.875-1.634 9.302 4.556 18.176 13.826 19.814 57.739 10.215 115.793-1.543 163.468-33.125 47.972-31.771 79.754-79.787 89.491-135.207 1.634-9.302-4.556-18.176-13.827-19.814-1.004-0.173-1.998-0.258-2.982-0.258l0 0zM891.27 456.903c-8.117 0-15.311 5.839-16.767 14.139-13.811 78.614-59.043 146.832-127.355 192.074-68.609 45.438-152.318 62.337-235.706 47.584-9.27-1.639-18.11 4.573-19.743 13.875-1.634 9.302 4.556 18.176 13.826 19.814 92.006 16.281 184.489-2.443 260.404-52.721 76.208-50.473 126.693-126.719 142.15-214.686 1.634-9.302-4.56-18.176-13.83-19.814-0.999-0.178-1.995-0.267-2.98-0.267l0 0zM891.27 456.903z"  horiz-adv-x="1024" />

    
    <glyph glyph-name="next4" unicode="&#58936;" d="M768 469.333333 426.666667 810.666667C392.533333 844.8 332.8 844.8 298.666667 810.666667c-34.133333-34.133333-34.133333-93.866667 0-128l281.6-281.6L298.666667 119.466667c-34.133333-34.133333-34.133333-93.866667 0-128 34.133333-34.133333 93.866667-34.133333 128 0l341.333333 341.333333C785.066667 358.4 793.6 384 793.6 401.066667 793.6 426.666667 785.066667 452.266667 768 469.333333L768 469.333333M768 469.333333 768 469.333333z"  horiz-adv-x="1024" />

    
    <glyph glyph-name="caidan1" unicode="&#58924;" d="M512 786.285714m-109.714286 0a3 3 0 1 0 219.428571 0 3 3 0 1 0-219.428571 0ZM512 384m-109.714286 0a3 3 0 1 0 219.428571 0 3 3 0 1 0-219.428571 0ZM512-18.285714m-109.714286 0a3 3 0 1 0 219.428571 0 3 3 0 1 0-219.428571 0Z"  horiz-adv-x="1024" />

    
    <glyph glyph-name="lianjie1" unicode="&#58909;" d="M405.804864 487.481839 405.804864 487.481839l-3.288906-3.185552c-75.466786-75.518974-69.097728-194.708564 6.371104-270.328845l175.081551-175.085644c75.573209-75.518974 199.179388-75.518974 274.749528 0l3.288906 3.238764c75.572186 75.518974 75.572186 199.227484 0 274.848789l-80.350003 75.16184c-2.412956 2.927679-5.188162 5.497201-8.220219 7.705496l-0.821715 0.772596c-0.050142-0.052189-0.050142-0.105401-0.050142-0.105401-6.885827 4.675486-15.205307 7.448646-24.197098 7.448646-23.736611 0-43.001373-19.262716-43.001373-42.998303 0-13.666254 6.371104-25.843598 16.285918-33.703613l77.369112-77.369112c41.048905-40.895409 41.048905-107.680465 0-148.729369l-3.288906-3.339048c-41.047882-40.99467-107.783819-40.99467-148.779511 0L471.870536 276.897703c-41.045835 40.99774-53.275367 111.63759-12.226462 152.633283l3.236718 3.238764c3.391237 3.440355 7.091512 6.472412 10.840906 9.55461 3.699252 2.261507 6.986111 5.13802 9.761318 8.477069l0 0 0 0c5.804193 6.885827 9.246595 15.72003 9.246595 25.38004 0 21.833261-17.723663 39.60809-39.556924 39.60809-10.738575 0-20.396539-4.210905-27.538193-11.095709l0 0C418.751734 499.40131 412.020426 493.747543 405.804864 487.481839M153.453463 744.249831 153.453463 744.249831c-75.622328-75.572186-75.622328-199.179388 0-274.801716l81.274048-74.955132c2.775206-3.493567 6.011924-6.523577 9.710153-8.988722l1.183965-1.080611c0.050142 0.101307 0.101307 0.153496 0.101307 0.25685 6.522554-4.006244 14.177907-6.318916 22.398126-6.318916 23.581068 0 42.640146 19.11229 42.640146 42.640146 0 14.025435-6.832615 26.560936-17.261129 34.317597l-77.163427 77.216639c-41.046858 40.945551-41.046858 107.73163 0 148.780535l3.235694 3.183506c41.048905 41.050951 107.783819 41.050951 148.727323 0l175.186951-175.030385c41.047882-41.046858 56.614415-100.692307 15.618723-141.742235l-3.185552-3.184529c-6.421246-6.370081-15.669888-13.100366-20.602224-24.249287l0 0c-2.362814-4.878101-3.697205-10.42749-3.697205-16.232706 0-20.653389 16.747429-37.399795 37.399795-37.399795 6.782473 0 13.101389 1.795902 18.59859 4.983501l0 0c0 0 0.050142 0 0.050142 0.051165 3.442402 2.054799 6.575766 4.519943 9.196453 7.448646 3.64604 3.082198 7.191796 6.371104 10.635221 9.761318l3.183506 3.182482c75.572186 75.624375 71.411423 184.79375-4.210905 260.315794L431.491896 747.486548c-75.622328 75.622328-199.22953 75.622328-274.851858 0L153.453463 744.249831M153.453463 744.249831"  horiz-adv-x="1024" />

    
    <glyph glyph-name="caidan2" unicode="&#58916;" d="M86.738824 63.548235C40.96 63.548235 0 24.997647 0-20.781176 0-66.56 40.96-107.52 86.738824-107.52 132.517647-107.52 171.068235-66.56 171.068235-20.781176 171.068235 24.997647 132.517647 63.548235 86.738824 63.548235ZM86.738824 477.967059C40.96 477.967059 0 439.416471 0 393.637647 0 347.858824 40.96 309.308235 86.738824 309.308235 132.517647 309.308235 171.068235 347.858824 171.068235 393.637647 171.068235 439.416471 132.517647 477.967059 86.738824 477.967059ZM395.143529 730.955294 1125.195294 730.955294C1168.564706 730.955294 1204.705882 764.687059 1204.705882 808.056471 1204.705882 851.425882 1168.564706 887.567059 1125.195294 887.567059L395.143529 887.567059C351.774118 887.567059 315.632941 851.425882 315.632941 808.056471 315.632941 764.687059 351.774118 730.955294 395.143529 730.955294ZM86.738824 894.795294C40.96 894.795294 0 853.835294 0 808.056471 0 762.277647 40.96 723.727059 86.738824 723.727059 132.517647 723.727059 171.068235 762.277647 171.068235 808.056471 171.068235 853.835294 132.517647 894.795294 86.738824 894.795294ZM1125.195294 473.148235 395.143529 473.148235C351.774118 473.148235 315.632941 437.007059 315.632941 393.637647 315.632941 350.268235 351.774118 314.127059 395.143529 314.127059L1125.195294 314.127059C1168.564706 314.127059 1204.705882 350.268235 1204.705882 393.637647 1204.705882 437.007059 1168.564706 473.148235 1125.195294 473.148235ZM1125.195294 58.729412 395.143529 58.729412C351.774118 58.729412 315.632941 22.588235 315.632941-20.781176 315.632941-64.150588 351.774118-100.291765 395.143529-100.291765L1125.195294-100.291765C1168.564706-100.291765 1204.705882-64.150588 1204.705882-20.781176 1204.705882 22.588235 1168.564706 58.729412 1125.195294 58.729412Z"  horiz-adv-x="1205" />

    
    <glyph glyph-name="yanjing" unicode="&#58883;" d="M515.2 672c-307.2 0-492.8-313.6-492.8-313.6s214.4-304 492.8-304S1008 358.4 1008 358.4s-185.6 313.6-492.8 313.6zM832 243.2c-102.4-86.4-211.2-140.8-320-140.8s-217.6 51.2-320 140.8c-35.2 32-70.4 64-99.2 99.2-6.4 6.4-9.6 12.8-16 19.2 3.2 6.4 9.6 12.8 12.8 19.2 25.6 35.2 57.6 70.4 92.8 102.4C281.6 572.8 390.4 627.2 512 627.2s230.4-54.4 329.6-144c35.2-32 64-67.2 92.8-102.4 3.2-6.4 9.6-12.8 12.8-19.2-3.2-6.4-9.6-12.8-16-19.2C902.4 310.4 870.4 275.2 832 243.2z m-320 307.2c-96 0-169.6-76.8-169.6-169.6 0-96 76.8-169.6 169.6-169.6 96 0 169.6 76.8 169.6 169.6S604.8 550.4 512 550.4z m0-294.4c-67.2 0-121.6 54.4-121.6 121.6S444.8 499.2 512 499.2s121.6-54.4 121.6-121.6c0-64-54.4-121.6-121.6-121.6z"  horiz-adv-x="1024" />

    
    <glyph glyph-name="prev3" unicode="&#59213;" d="M514.479 821.283c-242.781 0-439.599-196.81-439.599-439.599s196.81-439.599 439.599-439.599c242.781 0 439.599 196.81 439.599 439.599 0 242.781-196.81 439.599-439.599 439.599v0zM625.72 218.497l-46.623-46.623-209.824 209.819 209.824 209.824 46.623-46.638-163.687-163.674 163.687-162.703z"  horiz-adv-x="1024" />

    
    <glyph glyph-name="weibiaoti--" unicode="&#59173;" d="M238.528 146.848h-0.192C121.024 148.8 1.12 159.52 1.12 224.832c0 54.528 87.872 115.904 195.84 136.8a26.816 26.816 0 0 1 18.976 18.656c3.072 10.368 0 21.312-8.416 30.016a17.664 17.664 0 0 0-0.992 1.184c-34.208 34.048-56.224 90.656-56.224 144.864 0 85.152 52.672 144.608 128.032 144.608s128.032-59.456 128.032-144.608c0-56.128-22.24-112.352-58.048-146.72-7.84-8.256-10.816-19.072-7.808-29.312a26.848 26.848 0 0 1 19.136-18.72c42.528-8.16 83.328-22.944 117.536-42.592a12.032 12.032 0 0 0-11.968-20.832c-31.904 18.368-70.176 32.192-110.656 39.968a51.2 51.2 0 0 0-37.088 35.392c-5.408 18.4-0.256 38.208 13.824 52.992 31.168 29.952 51.072 80.768 51.072 129.824 0 71.008-42.784 120.608-104.032 120.608s-104.032-49.6-104.032-120.608c0-48.8 19.776-99.488 50.4-129.088a13.536 13.536 0 0 0 1.632-1.952c13.216-14.688 17.952-33.92 12.64-51.84a50.88 50.88 0 0 0-36.992-35.328c-101.408-19.616-176.832-76-176.832-113.344 0-33.504 71.872-51.648 213.6-53.984a12.032 12.032 0 0 0 11.808-12.192 12.064 12.064 0 0 0-12.032-11.776zM644.96-6.144c-197.664 0-380.576 12.64-380.576 104.192 0 73.664 120.416 156.896 268.448 185.536 13.92 3.232 25.504 14.4 29.856 29.088 4.736 16.096 0.096 32.96-12.832 46.336a11.392 11.392 0 0 0-1.248 1.536c-46.752 46.496-76.864 123.936-76.864 198.176 0 115.584 71.264 196.32 173.248 196.32 102.016 0 173.28-80.736 173.28-196.32 0-75.648-31.136-154.336-79.296-200.512-12.224-12.896-16.736-29.6-12.064-45.472 4.32-14.528 15.808-25.728 30.016-29.152 147.872-28.352 268.672-111.616 268.672-185.536-0.032-91.584-182.944-104.192-380.64-104.192zM568.96 373.664c17.408-19.232 23.648-44.384 16.736-67.84a65.856 65.856 0 0 0-47.904-45.76c-147.168-28.48-249.408-108.256-249.408-162.048 0-71.872 203.488-80.192 356.576-80.192 153.088 0 356.608 8.32 356.608 80.192 0 54.016-102.56 133.888-249.728 162.08a66.24 66.24 0 0 0-47.936 45.824c-7.2 24.288-0.64 49.504 18.016 69.184 44.096 42.272 72.32 114.176 72.32 183.616 0 101.44-61.376 172.32-149.28 172.32-87.872 0-149.248-70.848-149.248-172.32 0-69.024 28.032-140.768 71.392-182.752a10.496 10.496 0 0 0 1.856-2.304z"  horiz-adv-x="1025" />

    
    <glyph glyph-name="xinwenzixun" unicode="&#58969;" d="M685.766061 896H156.56942c-47.990627 0-87.082992-39.492287-87.082992-87.882835v-847.634447c0-48.490529 39.092365-87.882835 87.082992-87.882835h710.96114c47.990627 0 87.082992 39.492287 87.082992 87.882835V619.653974L685.766061 896zM704.962312 786.221441l139.072837-139.072837H733.356766c-23.095489 0-28.494435 6.498731-28.494434 29.894161V786.221441z m194.362039-830.637766c0-23.395431-4.499121-27.694591-27.694591-27.694591H152.570201c-23.095489 0-27.694591 4.29916-27.694591 27.694591V813.016208c0 23.395431 4.499121 27.694591 27.694591 27.694591h497.902754v-165.967585c0-48.490529 48.490529-85.683265 96.481156-85.683265h152.47022v-633.476274zM429.316149 674.643234H235.753954v-54.98926h193.562195v54.98926zM235.753954 232.629565h553.091975v54.989259H235.753954v-54.989259z m193.562195 331.135325H235.753954v-54.98926h193.562195v54.98926z m0-109.778559H235.753954V397.897286h193.562195v56.089045z m-193.562195-359.929701h553.091975v54.989259H235.753954v-54.989259z"  horiz-adv-x="1024" />

    
    <glyph glyph-name="dianhua2" unicode="&#58956;" d="M684.907537 202.786799c-24.013927 23.227004-71.001077 62.169945-115.409497 62.197574-14.832823 0-28.538987-4.272303-39.822984-12.411681l-28.314882-20.491707c-44.347021 9.42465-89.822748 48.087205-122.163317 104.125499-32.404014 56.035224-43.150776 114.713648-29.196973 157.832701l31.899524 14.331404c40.668235 18.291598 53.869908 70.839395 37.304628 148.091849-13.355169 62.166875-58.7081 179.678242-135.111211 179.678243a70.694085 70.694085 0 0 1-21.812795-3.455705l-54.025451-17.476024c-46.294372-15.022135-81.149205-53.866838-90.986247-101.452623-28.977985-139.606595 7.355525-311.363424 99.659791-471.242737 92.371804-159.844521 223.051075-277.168624 358.379227-321.7991 13.770632-4.493338 28.037567-6.818289 42.493813-6.81829 33.629935 0 65.936735 12.379958 90.861404 34.884509l42.11519 38.031175c14.96176 13.481036 36.737716 44.748157 14.456246 102.706173-13.452383 35.013445-44.186362 78.418001-80.326466 113.26874z m35.163871-181.942819l-42.116214-38.028105c-16.499789-14.898315-37.930891-23.097044-60.153008-23.097044a88.893586 88.893586 0 0 0-28.092825 4.52506c-124.901685 41.172725-246.309802 150.951991-333.116867 301.211202-86.74362 150.232606-121.220852 310.268486-94.442975 439.000406 6.537903 31.492248 29.574572 57.232492 60.218499 67.162656l53.993729 17.538445c2.578732 0.784876 5.121648 1.194198 7.732101 1.194198 35.640732 0 75.491345-74.172303 90.356914-143.505391 10.906397-50.757011 6.411013-88.689948-11.252275-96.705506l-48.49448-21.748326-1.224898-2.545986c-26.934442-56.633858-16.972557-138.099265 26.02063-212.551954 43.026956-74.517157 108.588137-123.82926 171.130566-128.796388l2.828418-0.216941 43.056632 31.141254c3.460822 2.51324 7.668657 3.742231 12.981662 3.742231 42.585911-0.031722 128.356366-81.906451 152.962787-146.019655 6.569626-16.969487 11.473309-39.851637-2.388396-52.300156z m155.765622 574.425771C825.453527 694.552965 739.435431 768.253524 633.547799 802.826947a22.518876 22.518876 0 0 1-7.099699 1.162476 22.812565 22.812565 0 0 1-21.748326-15.807011c-3.900843-11.974729 2.668783-24.924669 14.676257-28.852118 94.222965-30.768771 170.812317-96.392374 215.598336-184.737468 44.914956-88.379886 52.649104-188.91972 21.877264-283.144732-3.931542-12.006452 2.669806-24.953322 14.710026-28.847002a22.060435 22.060435 0 0 1 7.070023-1.165545c9.930163 0 18.733667 6.348592 21.809725 15.804964 34.539654 105.823164 25.76992 218.745003-24.604375 318.02924z m-285.189297 76.027557c-2.292206 0.723477-4.682649 1.130753-7.135514 1.130754-9.927093 0-18.729573-6.348592-21.74935-15.807011-3.926426-11.974729 2.669806-24.955368 14.648628-28.852118 59.022255-19.234063 106.983593-60.406788 135.140886-115.910917 28.16241-55.501058 33.129538-118.516254 13.765515-177.475064-3.895727-12.007475 2.706645-24.957415 14.71412-28.91761a23.911596 23.911596 0 0 1 7.131421-1.100054c9.930163 0 18.699897 6.348592 21.748327 15.777335 23.037692 70.620407 17.190521 146.050354-16.499789 212.427111-33.754778 66.408479-91.206258 115.65816-161.764244 138.727574z m-57.1977-175.027315c49.468668-16.184611 76.498278-69.520353 60.343343-118.956276-3.900843-11.973706 2.702552-24.924669 14.709003-28.884864 2.292206-0.722454 4.681626-1.131777 7.071046-1.131776a22.914896 22.914896 0 0 1 21.812795 15.809057c24.00881 73.417103-16.283872 152.681378-89.700975 176.692235a22.602787 22.602787 0 0 1-7.136537 1.162476c-9.930163 0-18.663058-6.348592-21.774933-15.777335-3.89982-12.065803 2.668783-25.016767 14.676258-28.913517z"  horiz-adv-x="1024" />

    
    <glyph glyph-name="caidan6" unicode="&#58961;" d="M90.996 637.941h841.65c50.253 0 90.995 41.283 90.995 92.211 0 50.942-40.742 92.224-90.995 92.224H90.996C40.742 822.376 0 781.094 0 730.152c0-50.927 40.742-92.211 90.996-92.211z m841.65-165.996H90.996C40.742 471.945 0 430.649 0 379.721c0-50.928 40.742-92.224 90.996-92.224h841.65c50.253 0 90.995 41.296 90.995 92.224 0.001 50.928-40.742 92.224-90.995 92.224z m0-350.431H90.996C40.742 121.514 0 80.218 0 29.289s40.742-92.225 90.996-92.225h841.65c50.253 0 90.995 41.296 90.995 92.225s-40.742 92.225-90.995 92.225z"  horiz-adv-x="1024" />

    
    <glyph glyph-name="home" unicode="&#58884;" d="M838.668 341.584l-321.154 344.25c-0.257 0.259-6.271 7.094-14.762 7.094-9.994 0-14.717-6.834-14.972-7.094l-321.157-344.25h0.587l-25.983-27.94v-379.981c0 0 29.61-0.688 66.166-0.688h166.18c-0.156 1.953-0.252 3.929-0.252 5.928v253.514c0 36.572 27.088 66.226 60.489 66.226h139.793c33.401 0 60.494-29.655 60.494-66.226v-253.516c0-1.999-0.097-3.975-0.258-5.928h163.947c36.56 0 66.202 0.688 66.202 0.688v379.983l-25.983 27.94h0.663zM577.303 830.973c-41.433 41.512-108.653 41.512-150.085 0l-422.006-422.631c15.618-30.444 43.5-53.539 77.112-62.757l398.947 397.805c2.494 2.477 4.934 4.655 7.344 6.478 4.795 4.297 9.425 6.095 14.032 5.92 4.607 0.174 9.237-1.623 14.033-5.92 2.412-1.823 4.851-3.999 7.345-6.478l399.010-397.865c33.452 9.098 61.24 31.94 76.966 62.097l-422.698 423.351z"  horiz-adv-x="1000" />

    
    <glyph glyph-name="denglu" unicode="&#58881;" d="M508.289087 344.240215h6.78567c62.13129 1.060261 112.387658 22.901636 149.49679 64.675917 81.640091 92.030648 68.068751 249.797474 66.584386 264.853178-5.301305 113.023814-58.738455 167.097122-102.84531 192.331332C595.442535 884.973286 557.061089 895.151791 514.226548 896H510.621661c-23.537793 0-69.765169-3.816939-114.084076-29.051149-44.530959-25.23421-98.816318-79.307517-104.117622-193.179541-1.484365-15.055705-15.055705-172.822531 66.584386-264.853178 36.89708-41.77428 87.153448-63.615655 149.284738-64.675917z m-159.251191 324.227791c0 0.636157 0.212052 1.272313 0.212052 1.696417 6.997722 152.041416 114.932284 168.369435 161.159661 168.369435H512.954235c57.25409-1.272313 154.586043-24.598053 161.15966-168.369435 0-0.636157 0-1.272313 0.212052-1.696417 0.212052-1.484365 15.055705-145.679851-52.376889-221.594533-26.718575-30.11141-62.343342-44.955063-109.206875-45.379168h-2.120522c-46.651481 0.424104-82.4883 15.267757-108.994823 45.379168-67.220543 75.490578-52.800994 220.32222-52.588942 221.594533zM947.449161 82.567819v0.636157c0 1.696417-0.212052 3.392835-0.212052 5.301305-1.272313 41.986333-4.028992 140.166494-96.05964 171.550217-0.636157 0.212052-1.484365 0.424104-2.120521 0.636157-95.635535 24.386001-175.155105 79.519569-176.003314 80.155725-12.935183 9.118244-30.747567 5.937461-39.86581-6.997722-9.118244-12.935183-5.937461-30.747567 6.997722-39.86581 3.604887-2.544626 88.001657-61.283081 193.603644-88.425761 49.408159-17.600331 54.921516-70.401325 56.405881-118.749224 0-1.90847 0-3.604887 0.212053-5.301304 0.212052-19.084697-1.060261-48.55995-4.453096-65.524126-34.352454-19.508801-169.005591-86.941396-373.848002-86.941395-203.994202 0-339.495548 67.644647-374.060054 87.153448-3.392835 16.964175-4.8772 46.439428-4.453096 65.524125 0 1.696417 0.212052 3.392835 0.212053 5.301304 1.484365 48.347898 6.997722 101.148892 56.405881 118.749224 105.601988 27.14268 189.998758 86.093187 193.603644 88.425761 12.935183 9.118244 16.115966 26.930627 6.997722 39.86581-9.118244 12.935183-26.930627 16.115966-39.86581 6.997723-0.848209-0.636157-79.943674-55.769725-176.003314-80.155726-0.848209-0.212052-1.484365-0.424104-2.120521-0.636157-92.030648-31.595776-94.787327-129.775937-96.05964-171.550217 0-1.90847 0-3.604887-0.212052-5.301305v-0.636156c-0.212052-11.026714-0.424104-67.644647 10.814661-96.05964 2.120522-5.513357 5.937461-10.178505 11.026714-13.359288 6.361566-4.241044 158.827086-101.360944 413.925864-101.360944s407.564299 97.331953 413.925865 101.360944c4.8772 3.180783 8.906192 7.845931 11.026713 13.359288 10.602609 28.202941 10.390557 84.820874 10.178505 95.847587z"  horiz-adv-x="1024" />

    
    <glyph glyph-name="women" unicode="&#58907;" d="M399.441664 192a258.56 258.56 0 0 1 56.832 25.6 40.96 40.96 0 0 1 14.08 13.312 76.8 76.8 0 0 1 5.12 17.408 35.072 35.072 0 0 0-1.536 14.592 21.504 21.504 0 0 1-3.328 9.728c-2.048 2.56-4.096 4.864-6.912 7.68a99.584 99.584 0 0 1-10.752 9.984 54.784 54.784 0 0 0-13.824 18.944c-3.584 8.448-6.912 16.896-9.728 25.6s-5.12 19.712-7.936 30.72a29.696 29.696 0 0 0-12.032 8.192 73.728 73.728 0 0 0-11.264 14.08 111.616 111.616 0 0 0-10.752 25.6 80.128 80.128 0 0 0-4.096 29.696 81.664 81.664 0 0 0 5.12 23.808 60.416 60.416 0 0 0 12.032 20.224 522.24 522.24 0 0 0 4.864 70.912 614.4 614.4 0 0 0 15.36 64 217.088 217.088 0 0 0 30.464 62.72 426.496 426.496 0 0 0 38.144 44.288 200.448 200.448 0 0 0 40.96 33.024c-4.096 12.8-7.168 25.6-9.728 34.304a80.128 80.128 0 0 1-16.384 31.744 207.104 207.104 0 0 1-153.6 67.328 292.608 292.608 0 0 1-41.472-3.328 172.544 172.544 0 0 1-42.24-11.776 179.2 179.2 0 0 1-40.96-23.808 157.952 157.952 0 0 1-36.608-39.424A186.368 186.368 0 0 1 161.873664 760.32a470.272 470.272 0 0 1-13.312-58.88 409.6 409.6 0 0 1-3.072-66.048 52.736 52.736 0 0 1-10.752-18.176 65.792 65.792 0 0 1-5.12-21.76 64 64 0 0 1 4.096-25.6 95.232 95.232 0 0 1 10.496-22.016 54.528 54.528 0 0 1 10.496-12.032 81.152 81.152 0 0 1 12.032-6.144c2.816-9.984 5.12-19.456 7.936-27.392s6.144-14.848 9.728-22.272a41.728 41.728 0 0 1 13.568-16.128c9.216-8.192 18.176-16.128 25.6-23.808a51.2 51.2 0 0 0 13.824-32.256v-24.064a58.88 58.88 0 0 0-4.096-21.76 64.768 64.768 0 0 0-13.568-20.992 218.112 218.112 0 0 0-28.16-22.272 199.68 199.68 0 0 0-52.992-22.272c-20.224-5.12-39.424-11.264-58.368-17.664a157.952 157.952 0 0 1-49.408-25.6 75.264 75.264 0 0 1-25.6-48.384A338.432 338.432 0 0 1 1.617664 112.64a74.496 74.496 0 0 1 13.568-42.752 80.64 80.64 0 0 1 29.44-9.984c15.616-3.328 35.072-6.4 57.6-9.984s47.616-6.4 74.496-9.216 53.504-5.12 80.128-7.168c0 1.536 1.536 2.56 2.048 3.584a16.384 16.384 0 0 0 2.048 3.584c0 6.144 0 12.544 1.536 19.712s0 14.08 2.56 21.76a92.416 92.416 0 0 0 25.6 56.32 168.704 168.704 0 0 0 48.64 32.256c20.736 7.168 39.68 14.336 60.16 21.248zM1023.313664 27.136a211.712 211.712 0 0 1-6.4 34.56 105.984 105.984 0 0 1-26.88 39.168 173.568 173.568 0 0 1-42.752 23.296 475.136 475.136 0 0 1-49.92 15.616 325.376 325.376 0 0 0-47.104 15.616 120.576 120.576 0 0 0-38.144 21.248 73.984 73.984 0 0 0-19.712 25.6 68.608 68.608 0 0 0-6.4 25.6 151.04 151.04 0 0 0 1.536 26.88 61.44 61.44 0 0 0 5.632 17.408 43.008 43.008 0 0 0 8.448 12.544 152.064 152.064 0 0 0 11.776 10.496 166.656 166.656 0 0 1 14.848 12.032 51.2 51.2 0 0 1 12.8 16.128 179.2 179.2 0 0 1 9.984 22.016c2.816 8.192 5.12 17.408 8.192 27.392a34.816 34.816 0 0 1 16.128 9.216 81.408 81.408 0 0 1 12.032 17.408 85.504 85.504 0 0 1 7.936 29.44 56.832 56.832 0 0 1 0 23.808 75.008 75.008 0 0 1-5.632 15.616 49.664 49.664 0 0 1-9.216 10.752 359.68 359.68 0 0 1-4.096 68.864 522.24 522.24 0 0 1-15.616 63.232 170.24 170.24 0 0 1-92.928 107.264 198.4 198.4 0 0 1-92.672 21.248 292.352 292.352 0 0 1-40.704-3.328 186.624 186.624 0 0 1-42.752-11.776 179.2 179.2 0 0 1-41.472-23.808A157.952 157.952 0 0 1 513.617664 663.04a183.296 183.296 0 0 1-26.88-57.6 532.224 532.224 0 0 1-12.544-59.648 460.8 460.8 0 0 1-3.072-66.048 66.56 66.56 0 0 1-10.752-18.176 62.464 62.464 0 0 1 0-47.872 80.384 80.384 0 0 1 10.496-22.272 54.272 54.272 0 0 1 10.496-12.032 85.248 85.248 0 0 1 12.032-6.144c2.816-9.984 5.12-19.456 7.936-27.392s6.144-14.848 9.728-22.272a49.664 49.664 0 0 1 12.544-17.408q14.592-11.52 25.6-23.04a52.992 52.992 0 0 0 14.08-32.256v-25.6a49.408 49.408 0 0 0-4.352-21.248 83.2 83.2 0 0 0-14.08-20.224 185.856 185.856 0 0 0-27.648-22.016 167.68 167.68 0 0 0-53.248-23.04c-20.224-5.12-39.424-10.752-58.368-17.664a174.592 174.592 0 0 1-49.152-25.6 73.216 73.216 0 0 1-25.6-48.896 329.728 329.728 0 0 1-3.072-91.392 86.784 86.784 0 0 1 13.312-42.752 76.8 76.8 0 0 1 25.6-8.96c13.312-3.072 29.44-6.144 48.64-9.216s40.704-5.632 63.488-7.936l70.144-6.4 68.352-5.12c22.016 0 41.472-2.048 58.368-2.048s36.608 0 58.88 2.048l69.632 5.12c24.064 2.048 47.872 4.352 71.68 7.68s45.568 6.144 65.28 9.728a404.224 404.224 0 0 1 49.152 10.752 47.616 47.616 0 0 1 23.808 12.032 72.192 72.192 0 0 1 9.216 27.392 204.8 204.8 0 0 1 3.072 39.168 349.44 349.44 0 0 1-3.072 40.448z"  horiz-adv-x="1026" />

    
    <glyph glyph-name="caidan3" unicode="&#59012;" d="M927.996 351.998H640.001c-52.94 0-96.004-43.059-96.004-95.999v-287.995c0-52.93 43.059-95.999 96.004-95.999h287.995c52.935 0 95.999 43.069 95.999 95.999V255.999c0 52.94-43.064 95.999-95.999 95.999zM383.994 896H96C43.064 896 0 852.941 0 800.001v-287.995c0-52.935 43.064-95.999 95.999-95.999h287.995c52.94 0 96.004 43.064 96.004 95.999V800C479.998 852.941 436.939 896 383.994 896z m32-384a32.03 32.03 0 0 0-32-31.999H96a32.035 32.035 0 0 0-32 32.005V800a32.035 32.035 0 0 0 32 32h287.995c17.664 0 32-14.356 32-32v-287.995zM928 896H640.006c-52.94 0-96.004-43.059-96.004-95.999v-287.995c0-52.935 43.059-95.999 95.999-95.999h287.995c52.94 0 95.999 43.064 95.999 95.999V800c0 52.94-43.059 95.999-95.999 95.999z m32-384a32.025 32.025 0 0 0-32-31.999H640.006a32.03 32.03 0 0 0-32.015 32.005V800a32.03 32.03 0 0 0 32 32h287.995a32.025 32.025 0 0 0 32-32v-287.995zM383.984 351.999H95.999C43.069 351.998 0 308.939 0 255.999v-287.995c0-52.93 43.069-95.999 95.999-95.999h287.995c52.94 0 96.004 43.064 96.004 95.999V255.999c0 52.94-43.059 95.999-95.999 95.999z m32.005-383.994a32.03 32.03 0 0 0-32-32H96a32.035 32.035 0 0 0-32 32V255.999a32.04 32.04 0 0 0 32 32.01h287.995c17.659 0 32-14.356 32-32.01v-287.995z m543.997 0a32.025 32.025 0 0 0-32-32H639.99a32.03 32.03 0 0 0-32 32V255.999a32.03 32.03 0 0 0 32 32.01h287.996a32.03 32.03 0 0 0 32-32.01v-287.995z"  horiz-adv-x="1024" />

    
    <glyph glyph-name="fangdajing" unicode="&#58897;" d="M668.568413 169.537305A407.757537 407.757537 0 0 0 409.436226 77.127549C183.304598 77.127549 0 260.432147 0 486.563774S183.304598 896 409.436226 896s409.436226-183.304598 409.436225-409.436226a407.757537 407.757537 0 0 0-92.409756-259.132187l297.537305-297.537305-57.894282-57.894282-297.537305 297.537305zM409.436226 159.014794a327.54898 327.54898 0 1 1 0 655.097961 327.54898 327.54898 0 0 1 0-655.097961z"  horiz-adv-x="1024" />

    
    <glyph glyph-name="sousuo1" unicode="&#58905;" d="M1009.537808-118.4012c-12.7984-12.7984-31.996-12.7984-44.794401 0L702.888139 143.1981c-76.790401-57.336833-166.123235-95.732033-268.254468-95.732033C191.720035 53.865267 0 238.930134 0 474.932633 0 704.535933 191.720035 896 427.978503 896s427.978503-191.464067 427.978502-421.067367c0-108.530434-44.794401-210.405699-108.530433-280.7969l261.855268-261.5993c19.453568-12.542432 19.453568-38.139233 0.255968-50.937633zM427.978503 832.263967C230.115236 832.263967 63.992001 672.795901 63.992001 474.932633S230.115236 117.857268 427.978503 117.857268s364.24247 159.468066 364.242469 357.331333c0 197.607299-159.724034 357.075366-364.242469 357.075366z"  horiz-adv-x="1024" />

    
    <glyph glyph-name="zhanshiting" unicode="&#59249;" d="M876.934015 354.708883c-50.891064 0-95.768157 18.013259-121.871675 57.635675-26.086122-39.622416-70.946842-57.635675-121.809254-57.635675-50.895157 0-95.76918 18.013259-121.871675 57.635675-26.086122-39.622416-70.945819-57.635675-121.826649-57.635675-50.876738 0-95.753831 18.013259-121.857349 57.635675-26.085098-39.622416-70.961168-57.635675-121.839952-57.635675-80.411401 0-145.838529 77.695546-145.83853 158.104901v4.177136L127.722428 832.858938h767.728312l127.292128-315.868018v-4.177136c-0.001023-80.409354-65.411779-158.104901-145.808853-158.104901z m-90.75805 158.105925c0-53.998845 36.763298-103.038748 90.75805-103.038748 52.655244 0 80.389912 46.905286 82.478479 99.078553l-103.783714 259.731486H169.588955L63.348282 508.853589c2.088568-52.173267 29.837562-97.030917 82.510202-97.030917 53.980425 0 90.727351 46.994314 90.727351 100.991112h59.157331c0-53.996798 39.832194-100.17042 93.812619-100.17042 53.965076 0 90.712001 46.173622 90.712001 100.17042h62.226227c0-53.996798 36.761252-103.037724 90.75498-103.037724 53.969169 0 90.700745 49.040926 90.700745 103.037724h62.226227v0.001024zM895.440507-63.410959h-767.295453V320.40152h63.762209v-319.884495h639.649262V320.40152h63.883982v-383.812479z"  horiz-adv-x="1024" />

    
    <glyph glyph-name="fanhui1" unicode="&#58885;" d="M532.526499-8.817574L139.506311 384.202615 532.526499 777.222803c12.258185 12.258185 12.432147 32.892131-0.187265 45.51052-12.707416 12.707416-32.995485 12.703323-45.511543 0.187265L75.166957 411.260877c-7.120165-7.120165-10.163477-17.065677-8.990768-26.624381-1.500167-9.755178 1.5104-20.010753 8.990768-27.491121l411.660734-411.660734c12.258185-12.258185 32.892131-12.432147 45.511543 0.187265 12.707416 12.707416 12.7023 32.995485 0.187265 45.51052z"  horiz-adv-x="1024" />

    
    <glyph glyph-name="gengduo" unicode="&#58886;" d="M492.675886-8.817574L885.696074 384.202615 492.675886 777.222803c-12.258185 12.258185-12.432147 32.892131 0.187265 45.51052 12.707416 12.707416 32.995485 12.703323 45.511543 0.187265l411.660734-411.660734c7.120165-7.120165 10.163477-17.065677 8.990768-26.624381 1.500167-9.755178-1.5104-20.010753-8.990768-27.491121L538.374694-54.515359c-12.258185-12.258185-32.892131-12.432147-45.511543 0.187265-12.707416 12.707416-12.703323 32.995485-0.187265 45.51052z"  horiz-adv-x="1024" />

    
    <glyph glyph-name="shangjiantou" unicode="&#58887;" d="M65.582671 160.791335l446.417329 446.41733 446.417329-446.41733z"  horiz-adv-x="1024" />

    
    <glyph glyph-name="xiajiantou" unicode="&#58888;" d="M65.582671 607.208665l446.417329-446.41733 446.417329 446.41733z"  horiz-adv-x="1024" />

    
    <glyph glyph-name="youjiantou" unicode="&#58889;" d="M288.791335 830.417329l446.41733-446.417329-446.41733-446.417329z"  horiz-adv-x="1024" />

    
    <glyph glyph-name="zuojiantou" unicode="&#58890;" d="M735.208665 830.417329l-446.41733-446.417329 446.41733-446.417329z"  horiz-adv-x="1024" />

    
    <glyph glyph-name="sousuo" unicode="&#58912;" d="M727.934 201.316c60.047 67.008 96.572 155.563 96.572 252.643 0 209.08-169.492 378.596-378.596 378.596-209.102 0-378.598-169.516-378.598-378.596 0-209.129 169.495-378.643 378.598-378.643 95.079 0 181.977 35.056 248.505 92.963l230.23-230.251 33.288 33.286-229.999 230.002z m-282.023-79.174c-182.943 0-331.772 148.873-331.772 331.817 0 182.897 148.828 331.815 331.772 331.815 182.942 0 331.77-148.918 331.77-331.815 0-182.943-148.828-331.817-331.77-331.817z"  horiz-adv-x="1024" />

    
    <glyph glyph-name="dianhua" unicode="&#58915;" d="M659.654 233.716c-20.862 20.18-61.686 54.013-100.27 54.04-12.889 0-24.794-3.714-34.597-10.786l-24.604-17.804c-38.529 8.192-78.042 41.779-106.141 90.467-28.153 48.688-37.492 99.669-25.368 137.134l27.717 12.452c35.334 15.892 46.803 61.549 32.413 128.669C417.198 681.9 377.795 784 311.412 784a61.372 61.372 0 0 1-18.951-3.004l-46.94-15.182c-40.222-13.053-70.506-46.804-79.053-88.146-25.177-121.296 6.39-270.527 86.59-409.436 80.254-138.882 193.795-240.818 311.378-279.593 11.96-3.905 24.357-5.926 36.918-5.926 29.219 0 57.29 10.759 78.944 30.31l36.591 33.041c12.998 11.715 31.922 38.884 12.561 89.238-11.687 30.42-38.393 68.131-69.796 98.414z m30.556-158.078l-36.591-33.041c-14.336-12.943-32.959-20.07-52.265-20.07a77.326 77.326 0 0 0-24.412 3.932C468.426 62.23 362.94 157.612 287.519 288.166c-75.366 130.525-105.322 269.571-82.057 381.419 5.68 27.361 25.696 49.726 52.32 58.354l46.913 15.238c2.239 0.682 4.451 1.037 6.717 1.037 30.966 0 65.591-64.444 78.507-124.682 9.475-44.1 5.571-77.059-9.776-84.023l-42.134-18.896-1.065-2.212c-23.402-49.206-14.746-119.985 22.61-184.675 37.383-64.744 94.344-107.588 148.685-111.902l2.457-0.192 37.41 27.061c3.004 2.185 6.663 3.25 11.278 3.25 37.001-0.027 111.521-71.161 132.902-126.867 5.707-14.746 9.967-34.625-2.076-45.438zM825.542 574.722c-43.772 86.261-118.511 150.296-210.507 180.333a19.626 19.626 0 0 1-6.171 1.01 19.827 19.827 0 0 1-18.896-13.735c-3.386-10.404 2.321-21.654 12.752-25.067 81.865-26.734 148.412-83.75 187.324-160.509 39.021-76.786 45.738-164.14 19.005-246.006-3.413-10.431 2.321-21.681 12.78-25.067a19.172 19.172 0 0 1 6.143-1.011c8.629 0 16.275 5.516 18.951 13.736 30.01 91.941 22.392 190.054-21.381 276.316zM577.762 640.777c-1.994 0.628-4.069 0.983-6.199 0.983-8.629 0-16.275-5.516-18.896-13.736-3.414-10.404 2.321-21.681 12.725-25.067 51.282-16.712 92.952-52.484 117.418-100.707 24.467-48.224 28.782-102.974 11.961-154.201-3.386-10.431 2.348-21.681 12.779-25.122a20.83 20.83 0 0 1 6.199-0.956c8.629 0 16.247 5.516 18.896 13.708 20.016 61.358 14.937 126.894-14.336 184.566-29.327 57.699-79.244 100.488-140.547 120.532zM528.063 488.706c42.981-14.063 66.465-60.403 52.429-103.356-3.386-10.404 2.349-21.654 12.78-25.095 1.993-0.628 4.068-0.983 6.144-0.983a19.905 19.905 0 0 1 18.951 13.735c20.862 63.789-14.145 132.656-77.934 153.518a19.634 19.634 0 0 1-6.198 1.011c-8.629 0-16.22-5.516-18.924-13.708-3.386-10.486 2.321-21.736 12.752-25.122z"  horiz-adv-x="1024" />

    
    <glyph glyph-name="jia" unicode="&#58984;" d="M470.674286 451.291429H39.497143v-81.115429h431.104v-431.030857h81.115428V370.102857h431.030858v81.188572H551.789714V882.322286h-81.188571V451.291429z"  horiz-adv-x="1024" />

    
    <glyph glyph-name="caidan4" unicode="&#58911;" d="M204.385 603.724h878.913c48.542 0 87.892 39.351 87.892 87.893s-39.351 87.892-87.892 87.892h-878.914c-48.542 0-87.892-39.351-87.892-87.892s39.351-87.893 87.892-87.893zM1083.298 164.266h-878.914c-48.538 0-87.887-39.348-87.887-87.887s39.348-87.887 87.887-87.887h878.914c48.538 0 87.887 39.348 87.887 87.887s-39.348 87.887-87.887 87.887zM1083.298 471.897h-878.914c-48.134-0.537-86.946-39.682-86.946-87.892s38.813-87.354 86.895-87.892l878.963-0.001c48.134 0.538 86.946 39.682 86.946 87.892s-38.813 87.354-86.895 87.892z"  horiz-adv-x="1365" />

    
    <glyph glyph-name="dingwei" unicode="&#58899;" d="M915.049651 492.544C915.049651 715.190857 734.565587 895.674921 511.91873 895.674921S108.78781 715.190857 108.78781 492.544c0-64.235683 15.408762-124.732952 42.130285-178.631111h-1.560381s24.023365-43.918222 60.789842-104.122921l0.292571-0.682666c11.735365-19.244698 25.096127-40.374857 39.07454-62.025143l1.007746-1.592889a2203.843048 2203.843048 0 0 1 60.984889-89.526857l2.925714-4.063492a1281.787937 1281.787937 0 0 1 62.805333-80.359619c2.438095-2.82819 4.843683-5.656381 7.281778-8.419556a714.199365 714.199365 0 0 1 19.862349-22.007873h0.032508c20.089905-21.227683 39.919746-39.822222 58.741841-53.150476a83.837968 83.837968 0 0 1 97.556318 0c18.822095 13.328254 38.651937 31.922794 58.709333 53.150476h0.065016l0.455111 0.520127a723.366603 723.366603 0 0 1 26.526476 29.744762 1295.246222 1295.246222 0 0 1 63.130413 80.782222l2.535619 3.510857a2195.488508 2195.488508 0 0 1 61.179937 89.819429l1.040254 1.592889a2853.871746 2853.871746 0 0 1 39.042031 61.992635c0.16254 0.260063 0.195048 0.487619 0.32508 0.715174a2768.473397 2768.473397 0 0 1 60.757333 104.122921h-1.560381a400.822857 400.822857 0 0 1 42.130286 178.631111zM511.91873 662.853079a170.309079 170.309079 0 1 0 0-340.618158 170.309079 170.309079 0 0 0 0 340.618158z"  horiz-adv-x="1024" />

    
    <glyph glyph-name="caidan7" unicode="&#58977;" d="M62 744h105.356v-105.356h-105.356v105.356zM263.937 744h698.063v-105.356h-698.063v105.356zM62 436.763h105.356v-105.356h-105.356v105.356zM263.937 436.763h698.063v-105.356h-698.063v105.356zM62 129.356h105.356v-105.356h-105.356v105.356zM263.937 129.356h698.063v-105.356h-698.063v105.356z"  horiz-adv-x="1024" />

    
    <glyph glyph-name="dianhua1" unicode="&#59013;" d="M612.57 876.986a45.57 45.57 0 0 1-7.57 0.934c-22.649 0.867-42.47-14.62-47.033-36.866-2.514-12.072-0.173-24.412 6.636-34.749 6.785-10.325 17.183-17.38 29.267-19.844 97.276-20.08 181.025-76.94 235.798-160.106 54.755-83.2 73.843-182.582 53.825-279.853-2.514-12.112-0.174-24.425 6.635-34.739 6.787-10.324 17.19-17.368 29.274-19.865a51.61 51.61 0 0 1 7.587-0.93c9.692-0.369 19.066 2.267 27.173 7.592 10.32 6.798 17.374 17.207 19.866 29.28 51.699 251.039-110.43 497.408-361.457 549.146z m79.578-694.31c2.732-1.785 63.732-40.946 110.597-89.083 17.65-18.21 47.209-48.675 46.43-84.018-0.66-24.144-14.284-48.356-41.67-73.917-6.808-6.685-67.807-63.658-165.397-63.658-26.732 0-54.19 4.244-81.626 12.598-28.827 8.736-58.144 22.236-87.048 40.053-114.113 67.398-202.185 154.176-285.811 281.46C43.878 424.868 39.751 612.226 40.413 647.536 40.652 810.494 176.374 874.595 191.845 881.38 213.134 891.253 231.736 896 248.869 896c8.203 0 16.064-1.108 23.332-3.331 14.967-4.541 35.74-16.305 49.7-46.548 19.042-41.037 37.056-99.863 49.358-161.45 12.939-63.915-22.897-81.856-57.557-99.197l-1.371-0.6s-61.318-25.582-72.101-30.022c-10.595-4.418-16.116-16.356-12.498-27.268 24.726-74.914 62.488-152.598 109.157-224.65 45.914-70.905 100.519-136.332 157.879-189.302 4.104-3.734 9.373-5.834 14.945-5.834l1.875 0.1c6.03 0.487 11.72 3.54 15.505 8.394 9.321 11.988 23.623 29.256 38.712 43.625 28.607 27.2 54.482 40.41 79.085 40.41 6.737 0 13.427-0.991 19.873-2.958 6.17-1.892 16.153-7.261 27.385-14.692zM498.043 498.015c-12.11 2.514-22.509 9.54-29.296 19.854-6.836 10.325-9.177 22.678-6.686 34.783 4.638 22.224 24.409 37.728 47.035 36.82 2.514-0.071 5.056-0.374 7.593-0.9 107.283-22.117 176.579-127.447 154.49-234.774-2.47-12.032-9.497-22.419-19.821-29.267-8.13-5.308-17.548-7.934-27.168-7.592-2.491 0.133-5.029 0.419-7.57 0.952-12.128 2.457-22.555 9.535-29.34 19.871-6.782 10.292-9.127 22.604-6.636 34.71 5.71 27.779 0.291 56.145-15.38 79.891-15.623 23.702-39.471 39.934-67.22 45.652zM546.08 642.81c-24.952 5.174-41.06 29.643-35.937 54.577 4.592 22.274 24.362 37.79 47.017 36.91 2.487-0.113 5.052-0.404 7.587-0.941 86.828-17.906 161.524-68.625 210.44-142.894 48.842-74.22 65.902-162.906 47.99-249.734-2.49-12.106-9.546-22.532-19.871-29.28-8.125-5.358-17.476-7.984-27.14-7.602a46.904 46.904 0 0 0-7.62 0.951c-24.895 5.112-41.032 29.598-35.903 54.577 12.912 62.65 0.61 126.701-34.688 180.314-35.298 53.591-89.192 90.215-151.875 103.122z m0 0"  horiz-adv-x="1024" />

    
    <glyph glyph-name="bohao" unicode="&#58929;" d="M1120.297267 106.454853l-4.607191 6.245304c2.559551-2.150023-11.773934 13.770383-11.773934 13.770383a466.606111 466.606111 0 0 1-49.143375 42.949263c-29.178879 22.933575-65.5245 49.296948-93.67956 67.111422-34.809891 21.6538-58.869668 35.833711-57.333937 34.656318l-25.083598 12.081079a66.189984 66.189984 0 0 1-43.000454 1.48454 54.057713 54.057713 0 0 1-27.131238-20.476407 164.527925 164.527925 0 0 1-29.178879-42.590925c-8.702473-15.357305-19.452586-37.318251-31.73843-58.818477a81.905626 81.905626 0 0 0-106.477313-34.042026 990.59735 990.59735 0 0 0-202.716424 139.341946A633.488823 633.488823 0 0 0 278.205054 462.283605a64.091152 64.091152 0 0 0 30.2027 80.421086c35.321801 16.329934 55.286297 20.476406 77.810344 33.120588 19.964496 11.927507 15.869215 7.934607 39.417082 22.575238 1.02382 0.665483 8.190563 6.859596 9.726293 7.525079 0 0 1.53573 1.689304 3.071461 3.02027a40.594476 40.594476 0 0 1 10.750114 48.221937l-3.071461 9.009619a857.5519 857.5519 0 0 1-42.488544 78.373445c-13.821574 22.16571-33.786071 49.757668-49.143375 69.312636A237.219168 237.219168 0 0 1 275.133593 883.176139s-10.238203 5.119102-15.869215 7.525079a73.510299 73.510299 0 0 1-58.357758-1.48454 304.228208 304.228208 0 0 1-94.191469-57.538701C39.14301 778.746466-8.464635 705.184976 1.261658 640.991442c14.845395-100.436773 147.430126-321.581962 320.45576-477.970516s418.230601-276.12434 529.315105-289.331622a257.081282 257.081282 0 0 1 200.668783 82.366344 288.71733 288.71733 0 0 1 66.03641 81.547289 73.305535 73.305535 0 0 1 2.559551 69.107871z"  horiz-adv-x="1127" />

    
    <glyph glyph-name="caidan5" unicode="&#58891;" d="M72.192 384a19.4 19.4 0 1 1 198.656 0 19.4 19.4 0 1 1-198.656 0zM407.552 384a19.4 19.4 0 1 1 198.656 0 19.4 19.4 0 1 1-198.656 0zM742.912 384a19.4 19.4 0 1 1 198.656 0 19.4 19.4 0 1 1-198.656 0z"  horiz-adv-x="1024" />

    
    <glyph glyph-name="fanhui2" unicode="&#59269;" d="M1277.547145-128a31.079872 31.079872 0 0 0-30.261981 24.536741 420.396166 420.396166 0 0 1-106.325878 183.207668 684.57508 684.57508 0 0 1-490.734825 182.389776v-245.367412a30.261981 30.261981 0 0 0-16.357827-26.990415 31.079872 31.079872 0 0 0-31.897764 0L13.087081 414.261981a30.261981 30.261981 0 0 0-13.086262 24.536741 30.261981 30.261981 0 0 0 12.268371 24.536741L601.150979 889.456869a31.079872 31.079872 0 0 0 31.897764 0 30.261981 30.261981 0 0 0 17.175718-26.990415V601.559105a845.699681 845.699681 0 0 0 180.753994-26.990415 648.587859 648.587859 0 0 0 301.801917-163.578275 671.488818 671.488818 0 0 0 175.028754-504.638977 30.261981 30.261981 0 0 0-27.808307-30.261981zM623.234046 323.476038a942.210863 942.210863 0 0 0 359.054313-62.977635 597.878594 597.878594 0 0 0 203.654952-143.130991 533.265176 533.265176 0 0 0 47.4377-58.070287 545.533546 545.533546 0 0 1-143.948882 303.437699 685.392971 685.392971 0 0 1-460.472843 178.30032h-8.178914a31.079872 31.079872 0 0 0-22.083067 8.178914 30.261981 30.261981 0 0 0-9.814697 22.083067V805.214058L83.425739 438.798722l505.456869-363.961661V294.031949a30.261981 30.261981 0 0 0 31.079873 30.261981z"  horiz-adv-x="1311" />

    
    <glyph glyph-name="tubiaozhizuomoban" unicode="&#58970;" d="M24.639 637.725h876.049c40.258 0 73.005-32.955 73.005-73.46v-439.127l24.335 24.409H852.019l24.335-24.409V247.183H146.312V125.138l24.335 24.409h-48.619c-40.288 0-73.055 32.957-73.055 73.46V662.134l-24.334-24.409z m0 48.818H0.304v-463.536c0-67.434 54.526-122.278 121.724-122.278H194.982V222.774l-24.335-24.409h681.372l-24.335 24.409V100.729H1022.362V564.265c0 67.431-54.501 122.278-121.674 122.278H24.639zM754.68-94.542l24.335 24.409H243.652l24.335-24.409V128.254c0 13.481-10.895 24.409-24.335 24.409-13.44 0-24.335-10.928-24.335-24.409v-222.796c0-13.481 10.895-24.409 24.335-24.409h535.364c13.44 0 24.335 10.928 24.335 24.409V128.254c0 13.481-10.895 24.409-24.335 24.409-13.44 0-24.335-10.928-24.335-24.409v-222.796zM207.149 466.862H523.5V515.68H207.149v-48.818z m12.168 195.272V857.405l-24.335-24.409h632.702L803.35 857.405v-195.271h48.669V881.814H170.647V662.134h48.67z"  horiz-adv-x="1024" />

    
    <glyph glyph-name="lianxiren" unicode="&#58892;" d="M510.370909 739.397818c-148.317091 0-268.544-117.783273-268.544-263.098182 0-145.268364 120.226909-263.051636 268.544-263.051636s268.497455 117.783273 268.497455 263.051636c0 145.338182-120.180364 263.098182-268.497455 263.098182M200.285091 375.365818V618.216727c-3.397818 0-6.772364-0.139636-10.123636-0.418909 55.04 119.552 177.594182 202.821818 320.232727 202.821818 142.592 0 265.146182-83.269818 320.186182-202.821818a120.459636 120.459636 0 0 1-10.100364 0.418909v-242.874182c68.491636 0 124.043636 54.365091 124.043636 121.413819 0 45.544727-25.646545 85.224727-63.534545 106.053818C827.671273 753.128727 682.100364 861.090909 510.417455 861.090909c-171.729455 0-317.323636-107.962182-370.641455-258.280727-37.911273-20.782545-63.511273-60.462545-63.511273-106.053818-0.023273-67.025455 55.505455-121.390545 124.020364-121.390546m578.024727-139.240727a395.799273 395.799273 0 0 0-267.962182-103.447273 395.822545 395.822545 0 0 0-267.566545 103.098182C117.294545 172.497455 34.909091 59.857455 34.909091-93.090909h954.181818c0 153.274182-83.944727 266.007273-210.781091 329.216m0 0"  horiz-adv-x="1024" />

    
    <glyph glyph-name="caidan8" unicode="&#58904;" d="M34.133 657.067c0 37.653 30.613 68.267 68.267 68.267h819.2c37.653 0 68.267-30.613 68.267-68.267s-30.613-68.267-68.267-68.267h-819.307c-37.653-0.107-68.16 30.613-68.16 68.267zM307.2 384c0 37.653 30.613 68.267 68.267 68.267h546.133c37.653 0 68.267-30.613 68.267-68.267s-30.613-68.267-68.267-68.267h-546.24c-37.76 0-68.16 30.613-68.16 68.267zM511.893 110.933c0 37.653 30.613 68.267 68.267 68.267h341.333c37.653 0 68.267-30.613 68.267-68.267s-30.613-68.267-68.267-68.267h-341.227c-37.867 0-68.373 30.613-68.373 68.267z"  horiz-adv-x="1024" />

    
    <glyph glyph-name="zhaoshangjiameng" unicode="&#59058;" d="M879.476364 367.476364l-18.245819-18.245819 13.637819-13.684363c2.792727-2.792727 4.840727-5.957818 6.237091-9.355637 25.367273-33.326545 24.203636-80.430545-6.237091-110.871272a81.454545 81.454545 0 0 0-55.994182-23.831273c-0.930909-20.48-8.517818-40.727273-24.157091-56.32a81.454545 81.454545 0 0 0-55.994182-23.831273c-0.930909-20.48-8.564364-40.727273-24.203636-56.32a81.454545 81.454545 0 0 0-55.947637-23.877818c-0.930909-20.48-8.564364-40.727273-24.203636-56.32-30.394182-30.440727-77.498182-31.604364-110.824727-6.237091a28.16 28.16 0 0 0-9.402182 6.237091l-14.522182 14.522182-13.032727-13.032727a28.392727 28.392727 0 0 0-9.402182-6.237091c-33.326545-25.367273-80.430545-24.203636-110.871273 6.237091-15.639273 15.592727-23.272727 35.84-24.203636 56.32a81.454545 81.454545 0 0 0-55.994182 23.831272c-15.592727 15.639273-23.226182 35.886545-24.157091 56.32a81.454545 81.454545 0 0 0-55.994182 23.831273c-15.639273 15.639273-23.272727 35.886545-24.157091 56.32a81.454545 81.454545 0 0 0-55.994181 23.877818c-30.440727 30.440727-31.604364 77.544727-6.237091 110.871273a28.346182 28.346182 0 0 0 6.237091 9.355636l12.939636 12.939637-14.987636 15.034182-2.513455 2.466909a255.069091 255.069091 0 0 0 360.727273 360.727272L500.363636 709.818182l18.385455 18.385454a255.069091 255.069091 0 1 0 360.727273-360.727272z m-285.184-352.581819a28.346182 28.346182 0 0 1 0 40.075637l-17.780364 17.826909c-1.396364-2.234182-1.954909-4.840727-3.584-6.981818a28.346182 28.346182 0 0 0-6.237091-9.309091l-26.996364-27.042909 14.522182-14.568728a28.346182 28.346182 0 0 1 40.075637 0z m-187.904 1.489455a28.392727 28.392727 0 0 1 40.029091 0l80.197818 80.151273a28.392727 28.392727 0 0 1-40.075637 40.075636l-80.151272-80.151273a28.392727 28.392727 0 0 1 0-40.075636z m-80.197819 80.151273a28.392727 28.392727 0 0 1 40.122182 0l80.151273 80.197818a28.346182 28.346182 0 1 1-40.075636 40.029091l-80.197819-80.151273a28.392727 28.392727 0 0 1 0-40.029091z m-80.151272 80.197818a28.346182 28.346182 0 0 1 40.075636 0l80.151273 80.151273a28.346182 28.346182 0 1 1-40.029091 40.029091l-80.197818-80.104728a28.346182 28.346182 0 0 1 0-40.075636z m-80.151273 80.151273a28.346182 28.346182 0 0 1 40.075636 0l80.151273 80.151272a28.346182 28.346182 0 1 1-40.029091 40.075637L165.841455 296.96a28.346182 28.346182 0 0 1 0-40.075636z m673.512727 431.243636a198.376727 198.376727 0 0 1-280.576 0l-18.385454-18.385455 0.791272-0.791272-40.075636-40.029091-59.252364 59.205818a198.376727 198.376727 0 1 1-280.576-280.576l0.744728-0.744727h0.046545l16.756364-16.756364 27.089454 27.136a28.253091 28.253091 0 0 0 9.355637 6.237091c33.373091 25.367273 80.430545 24.203636 110.871272-6.237091 15.639273-15.639273 23.272727-35.653818 23.831273-55.994182 20.48-0.930909 40.727273-8.517818 56.32-24.157091 15.685818-15.639273 23.272727-35.700364 23.877818-55.994181 20.433455-0.930909 40.680727-8.564364 56.32-24.203637 15.639273-15.592727 23.272727-35.653818 23.831273-55.947636 20.48-0.930909 40.727273-8.564364 56.32-24.203637 9.634909-9.588364 15.313455-21.085091 19.130182-33.047272l48.593454-48.593455a28.346182 28.346182 0 1 1 40.029091 40.075637l-80.151272 80.197818a28.392727 28.392727 0 0 0 40.122181 40.029091l80.151273-80.104728a28.346182 28.346182 0 0 1 40.075637 40.029091l-80.151273 80.197818a28.392727 28.392727 0 0 0 40.029091 40.075637l80.197818-80.151273a28.346182 28.346182 0 1 1 40.075636 40.029091l-13.498182 13.591273-98.39709 98.350545h-0.279273l-55.063273 55.109818h1.117091l-47.476364 47.476364-47.522909-47.476364h0.046546l-48.965818-49.012363a113.384727 113.384727 0 0 0-160.349091 160.349091l95.092363 95.092363 40.122182-40.075636L404.48 533.736727a56.692364 56.692364 0 0 1 80.197818-80.151272l34.769455 34.769454 0.046545 0.139636 78.661818 78.615273c0.930909 1.303273 0.558545 3.025455 1.722182 4.189091a28.346182 28.346182 0 0 0 40.075637 0l160.34909-160.302545c0.372364-0.418909 0.418909-0.930909 0.558546-1.396364l20.293818-20.293818 18.245818 18.245818a198.376727 198.376727 0 0 1 0 280.576z"  horiz-adv-x="1024" />

    
    <glyph glyph-name="jiantoushang" unicode="&#58902;" d="M941.2 146.7c-25-25-65.5-25-90.5 0L512 485.5 173.3 146.7c-25-25-65.5-25-90.5 0s-25 65.5 0 90.5l384 384.1c33.7 31.9 73.7 17.2 90.5 0l384-384.1c15.7-14.7 33.2-57.2-0.1-90.5z"  horiz-adv-x="1024" />

    
    <glyph glyph-name="rencaizhaopin" unicode="&#58945;" d="M322.725307 376.904573a29.424073 29.424073 0 0 1 34.954129 22.641928 157.554434 157.554434 0 0 0 308.326723-1.669451A29.424073 29.424073 0 1 1 723.497876 409.145844a216.193898 216.193898 0 0 1-125.208821 154.841576 114.774753 114.774753 0 1 1-173.622899 0 216.193898 216.193898 0 0 1-125.208822-152.233059 29.424073 29.424073 0 0 1 23.267973-34.849788z m189.06532 317.300021a55.613585 55.613585 0 1 0-55.613585-55.613585 55.613585 55.613585 0 0 0 55.613585 55.613585z m10.434069-526.816116H325.333824a29.424073 29.424073 0 0 1 0-58.743805h197.412575a29.424073 29.424073 0 0 1 0 58.743805zM325.438165 239.696572h372.809266a29.424073 29.424073 0 0 1 0 58.743806H325.333824a29.424073 29.424073 0 0 1 0-58.743806zM851.732578 895.999478H171.848677A95.367386 95.367386 0 0 1 76.585632 800.736433V-32.632614a95.367386 95.367386 0 0 1 95.263045-95.263045h537.563207a29.424073 29.424073 0 0 1 20.868137 8.764617l208.681369 211.081205a29.424073 29.424073 0 0 1 8.451595 20.868137v688.648518A95.367386 95.367386 0 0 1 851.732578 895.999478zM135.329437-32.632614V800.736433a36.414899 36.414899 0 0 0 36.310559 36.310559h680.092582a36.414899 36.414899 0 0 0 36.310558-36.310559v-658.702741H774.520471a95.367386 95.367386 0 0 1-95.263045-95.263045v-116.026842H171.848677A36.414899 36.414899 0 0 0 135.329437-32.632614z m712.020832 115.81816L738.627276-26.998217v73.768864a36.414899 36.414899 0 0 0 36.310558 36.310558z"  horiz-adv-x="1024" />

    
    <glyph glyph-name="qiyexinwen" unicode="&#58925;" d="M856.540034 671.776216h-25.582655v90.050945c0 56.281841-46.048779 102.33062-102.33062 102.33062h-561.795103c-56.281841 0-102.33062-46.048779-102.33062-102.33062v-755.199974c0-56.281841 46.048779-102.33062 102.33062-102.33062l689.708378 1.023306c56.281841 0 102.33062 46.048779 102.33062 102.33062v561.795103c0 56.281841-46.048779 102.33062-102.33062 102.33062z m-57.305147-611.937107c0-117.16856-31.210839-122.796744-122.796744-122.796744h-457.417871c-86.469374 0-122.796744 12.791327-122.796744 122.796744v649.799436c0 99.772354 29.164227 122.796744 122.796744 122.796744h457.417871c101.818967 0 122.796744-24.047696 122.796744-122.796744v-649.799436z m127.913275 1.023306c0-117.136837-31.194466-122.793674-122.723066-122.796744 16.467043 18.179035 26.532283 42.25129 26.532283 68.561516V639.374248c78.968539-4.499477 96.190783-32.646538 96.190783-122.117268v-456.394565z m-479.418954 546.957163h-287.549042v32.745799h287.549042v-32.745799z m-287.549042-63.444984h543.375591v-31.722492h-543.375591v31.722492z m319.271534-96.190783h224.104057v-31.722492h-224.104057v31.722492z m0-95.167476h224.104057v-32.745798h-224.104057v32.745798z m-319.271534-193.404872h543.375591v-31.722492h-543.375591v31.722492z m287.549042 288.572348h-287.549042v-224.104057h287.549042v224.104057z m-31.722493-191.358259h-224.104057v159.635767h224.104057v-159.635767z"  horiz-adv-x="1024" />

    
    <glyph glyph-name="shouye" unicode="&#58906;" d="M213.76 333.44v-398.08h-64V333.44a32 32 0 0 0 32 32 32 32 0 0 0 32-32zM433.92 234.24v-298.88h-64v298.88zM433.92-64.64H149.76v64h284.16zM878.08 336v-400.64h-64V336a32 32 0 0 0 32 32 32 32 0 0 0 32-32zM657.92 234.24v-298.88h-64v298.88zM369.92 234.24h288v-64h-288zM693.76 788.48h179.84v-64h-179.84a32 32 0 0 0-32 32 32 32 0 0 0 32 32zM809.6 608.64V788.48h64v-179.84a32 32 0 0 0-32-32 32 32 0 0 0-32 32zM593.92-0.64h284.16v-64H593.92zM557.892065 800.663741l-494.182787-494.182787-45.254834 45.254834 494.182787 494.182787 45.254834-45.254834ZM511.28324 845.876536l494.182787-494.182787-45.254834-45.254834-494.182787 494.182787 45.254834 45.254834Z"  horiz-adv-x="1024" />

    
    <glyph glyph-name="huodong" unicode="&#59117;" d="M216.467123 347.461829v28.650527H407.433456v-28.650527H216.467123m0 0zM216.467123 484.423177v28.643364h453.1865v-28.643364H216.467123m0 0zM216.467123 618.6963v28.641317h244.64693v-28.641317H216.467123m0 0zM803.563472 331.985346c-38.358633 0-74.517157-17.189498-98.638531-45.12371-24.119327 27.937283-60.277852 45.12371-98.634438 45.12371-67.961858 0-120.555703-51.557236-120.555703-118.170377 0-81.647555 74.514087-147.172921 187.404204-248.159939l31.785937-27.934213 31.791054 27.934213c112.892163 100.987019 187.400111 166.511361 187.40011 248.159939 0 66.61314-52.592822 118.170376-120.552633 118.170377m-85.1094-338.059436l-4.454452-3.986801-9.072632-7.972578-9.07468 7.972578-4.432962 3.986801c-53.151547 47.514153-99.021248 88.551802-129.377626 125.250632-29.449729 35.643802-42.597167 64.833611-42.597167 94.638427 0 23.475667 8.883321 45.103244 25.00244 60.901046 16.053628 15.744589 38.013779 24.417109 61.838394 24.417109 27.548426 0 54.779627-12.494569 72.842005-33.415041l25.795502-29.904077 25.796526 29.904077c18.060331 20.921495 45.289486 33.415041 72.837912 33.415041 23.824615 0 45.786813-8.67252 61.84044-24.417109 16.120143-15.797801 25.00244-37.426401 25.002441-60.901046 0-29.803793-13.145391-58.994626-42.598191-94.638427-30.346145-36.69883-76.218916-77.737502-129.34795-125.250632m0 0zM577.522296 13.359518H186.314383c-27.146267 0-49.15042 25.713638-49.15042 57.446364V730.056574c0 31.729655 22.00313 57.44841 49.15042 57.44841h576.22372c27.15036 0 49.158606-25.718755 49.158607-57.44841v-368.267435h37.271881V766.482181c0 35.239596-24.438599 63.797002-54.587246 63.797002H154.472164c-30.148647 0-54.588269-28.560476-54.588269-63.797002v-732.113163c0-35.230386 24.438599-63.791885 54.588269-63.791885h423.050132v42.782385m0 0z"  horiz-adv-x="1024" />

    
    <glyph glyph-name="nextpage" unicode="&#59122;" d="M678.4 215.04l3.584 325.12 279.04-163.84zM118.272 418.304h563.2v-102.4h-563.2z"  horiz-adv-x="1075" />

    
    <glyph glyph-name="shouye1" unicode="&#58937;" d="M933.899 388.159a25.908 25.908 0 0 0-18.381 7.612L547.379 763.774c-8.818 8.819-20.538 13.674-33.004 13.674s-24.185-4.854-33-13.67L114.551 396.954c-10.153-10.154-26.616-10.154-36.77 0-10.154 10.153-10.154 26.616 0 36.77L444.606 800.548c18.636 18.637 43.414 28.9 69.77 28.9 26.356 0 51.134-10.264 69.77-28.9L952.28 432.547c10.156-10.151 10.159-26.613 0.007-36.77a25.927 25.927 0 0 0-18.388-7.618zM918.375 547.3c-14.359 0-26 11.641-26 26V698.302c0 25.734-20.936 46.67-46.669 46.67H737.044c-14.359 0-26 11.641-26 26s11.641 26 26 26h108.662c54.407 0 98.669-44.263 98.669-98.67V573.3c0-14.36-11.64-26-26-26zM778.133-55.312h-149.32c-14.359 0-26 11.641-26 26V223.233c0 22.574-17.078 40.939-38.069 40.939h-95.35c-20.992 0-38.069-18.365-38.069-40.939v-252.545c0-14.359-11.641-26-26-26h-161.32c-54.406 0-98.669 44.263-98.669 98.67V397.494c0 14.359 11.641 26 26 26s26-11.641 26-26v-354.136c0-25.733 20.936-46.67 46.669-46.67h135.319V223.233c0 51.247 40.405 92.939 90.069 92.939h95.35c49.665 0 90.069-41.692 90.069-92.939v-226.545h123.319c25.733 0 46.669 20.937 46.669 46.67V397.494c0 14.359 11.641 26 26 26s26-11.641 26-26v-354.136c0.002-54.407-44.26-98.67-98.667-98.67z"  horiz-adv-x="1024" />

    
    <glyph glyph-name="icon-next" unicode="&#58919;" d="M778.982 392.437l-485.527-485.527-74.688 74.688 410.838 410.838-410.838 410.838 74.688 74.688 485.527-485.527z"  horiz-adv-x="1024" />

    
    <glyph glyph-name="prev1" unicode="&#58973;" d="M660.768 759.152a62.048 62.048 0 0 0 61.136-79.648 68.368 68.368 0 0 0-9.456-19.712c-9.808-13.792-24.512-23.568-35.04-36.624l-105.12-108.32-126.864-130.864 8.192-8.192L689.344 132.8a162.896 162.896 0 0 0 29.152-35.344 64.176 64.176 0 0 0-26.592-81.68 59.664 59.664 0 0 0-13.808-5.376 64.416 64.416 0 0 0-36.064 2.304 80.16 80.16 0 0 0-28.4 22.016l-28.896 29.456-223.232 230.464-35.04 36.112a138.448 138.448 0 0 0-19.952 24.592 54.8 54.8 0 0 0-6.912 32.272 74.784 74.784 0 0 0 16.128 38.832l15.344 15.36 52.432 54.032 156.8 161.6 52.432 54.032 17.392 17.92a95.664 95.664 0 0 0 26.096 23.04 58.304 58.304 0 0 0 16.112 5.632z"  horiz-adv-x="1024" />

    
    <glyph glyph-name="gonggao" unicode="&#58913;" d="M556.4 747.9c-12.9 6.1-28.1 4.1-39.1-5L306.1 567l-168.4 0.7h-0.1c-9.7 0-19-3.8-25.9-10.7-6.9-6.9-10.8-16.2-10.8-26l-0.9-293.9c0-9.8 3.8-19.1 10.7-26 6.9-7 16.2-10.8 26-10.8h170.4l210.2-175.2c6.7-5.6 15.1-8.5 23.5-8.5 5.3 0 10.6 1.1 15.6 3.5 12.9 6 21.1 19 21.1 33.3V714.7c0.1 14.2-8.1 27.1-21.1 33.2m142.5-183.7c-18.1 8.6-39.6 0.8-48.5-17.3-8.8-18.1-1.2-40 16.8-49 2.3-1.2 57.4-29.8 57.4-111.3 0-87-51.5-115.8-53.2-116.8-18.1-9.1-25.5-31.2-16.4-49.3 6.5-12.9 19.4-20.3 32.9-20.3 5.5 0 11.1 1.2 16.4 3.9 3.8 1.9 93.8 48.5 93.8 182.6-0.1 129.4-95.2 175.6-99.2 177.5m114.4 107.9c-16.9 10.9-39.4 5.9-50.5-11-11-16.9-6.2-39.6 10.7-50.8 4-2.6 98.1-66.7 98.1-226.4 0-160-90.3-224.2-93.9-226.6-16.9-11.3-21.4-34.1-10.2-51 7.1-10.6 18.7-16.4 30.6-16.4 7 0 14.1 2 20.4 6.2C823.6 99.7 945 182.9 945 384c0 201.5-126.3 284.7-131.7 288.1m0 0z"  horiz-adv-x="1024" />

    
    <glyph glyph-name="dacha" unicode="&#58894;" d="M936.3705405743406-93.45428114394065c-13.877652219575308 0-27.753978831960495 5.294862184296296-38.34105328071111 15.881936633046914l-847.4693591141136 847.46671048881c-21.17547450469136 21.17547450469136-21.17547450469136 55.509283271111116 0 76.6847564812642 21.176798817343204 21.174148897501233 55.509283271111116 21.174148897501233 76.68343216861234 0l847.4680348014615-847.4693591141136c21.17547450469136-21.174148897501233 21.17547450469136-55.50795766392099 0-76.68343216861234C964.1245194063011-88.16074327229626 950.2468671867259-93.45428114394065 936.3705405743406-93.45428114394065L936.3705405743406-93.45428114394065zM88.90250577287907-93.45428114394065c-13.876326612385187 0-27.753978831960495 5.294862184296296-38.34105328071111 15.881936633046914-21.17547450469136 21.17547450469136-21.17547450469136 55.50795766392099 0 76.68343216861234l847.46671048881 847.4680348014615c21.176798817343204 21.174148897501233 55.50663335126913 21.174148897501233 76.68343216861234 0 21.17547450469136-21.17547450469136 21.17547450469136-55.509283271111116 0-76.6847564812642L127.24355905359005-77.57366882354563C116.65648460483959-88.16074327229626 102.77883238526425-93.45428114394065 88.90250577287907-93.45428114394065L88.90250577287907-93.45428114394065z"  horiz-adv-x="1024" />

    
    <glyph glyph-name="next7" unicode="&#59057;" d="M512 704C335.616 704 192 560.704 192 384c0-176.384 143.296-320 320-320 176.384 0 320 143.296 320 320 0 176.384-143.296 320-320 320z m0 44.8c201.344 0 364.8-163.584 364.8-364.8 0-201.344-163.584-364.8-364.8-364.8A365.056 365.056 0 0 0 147.2 384c0 201.344 163.584 364.8 364.8 364.8zM411.392 257.92l44.032-46.464L637.056 384 455.424 556.544l-44.032-46.4L544.128 384 411.392 257.92z"  horiz-adv-x="1024" />

    
    <glyph glyph-name="jiantouxia" unicode="&#58926;" d="M517.688889 99.555556c-45.511111 0-85.333333 17.066667-119.466667 51.2L73.955556 514.844444c-22.755556 22.755556-17.066667 56.888889 5.688888 79.644445 22.755556 22.755556 56.888889 17.066667 79.644445-5.688889l329.955555-364.088889c5.688889-5.688889 17.066667-11.377778 28.444445-11.377778s22.755556 5.688889 34.133333 17.066667l312.888889 364.088889c22.755556 22.755556 56.888889 28.444444 79.644445 5.688889 22.755556-22.755556 28.444444-56.888889 5.688888-79.644445L637.155556 156.444444c-28.444444-39.822222-68.266667-56.888889-119.466667-56.888888 5.688889 0 0 0 0 0z"  horiz-adv-x="1024" />

    
    <glyph glyph-name="arrow-down" unicode="&#59025;" d="M511.96600000000007 122.91999999999996L959.569 591.998l-50.69400000000002 53.081-396.86299999999994-415.93700000000007L115.12499999999994 645.05l-50.69399999999999-53.04400000000001L511.96600000000007 122.91999999999996z"  horiz-adv-x="1024" />

    
    <glyph glyph-name="next5" unicode="&#59459;" d="M910.87 400.87L668.32 643.62a26.19 26.19 0 1 1-37.07-37l225-225.16L635.07 160.1a25.67 25.67 0 1 1 36.35-36.26l235.66 235.81a14.55 14.55 0 0 1 1.87 2.32l1.93 1.93a26.16 26.16 0 0 1 0 37zM135.47 357.08h728.74a26.93 26.93 0 1 1 0 53.86H135.47a26.93 26.93 0 1 1 0-53.86z"  horiz-adv-x="1024" />

    
    <glyph glyph-name="chanpinzhongxin" unicode="&#59052;" d="M887.808 629.76c22.528 11.264 35.328 29.184 34.816 48.64 0 19.456-12.8 36.864-34.816 47.616L567.296 883.712C550.912 891.392 530.432 896 508.416 896c-23.04 0-45.056-4.608-61.952-13.312L122.368 717.824c-22.528-11.264-35.328-29.184-34.816-48.64 0-19.456 12.8-36.864 34.816-47.616l321.024-157.696c15.872-7.68 36.864-12.288 58.88-12.288 23.04 0 45.056 4.608 61.952 13.312L887.808 629.76zM501.76 516.096c-12.8 0-25.088 2.56-33.28 6.656L164.352 669.696l0.512 2.56 307.2 156.16c9.216 4.608 22.016 7.168 35.84 7.168 12.8 0 25.088-2.56 33.28-6.656l304.128-149.504-0.512-2.56-307.2-153.6c-9.216-4.608-22.016-7.168-35.84-7.168zM424.448 411.136l-286.72 150.528-0.512 0.512c-11.776 5.632-23.552 8.704-34.304 8.704-28.672 0-49.664-20.48-49.664-49.152v-405.504c0-31.232 25.6-67.584 59.904-84.48l286.72-150.528 0.512-0.512c11.776-5.632 23.552-8.704 34.304-8.704 28.672 0 49.664 20.48 49.664 49.152v405.504c0 31.232-25.6 67.584-59.904 84.48z m1.024-477.184c-2.048 0.512-4.608 1.536-6.656 2.56l-275.968 145.92-5.632 2.56c-18.432 8.704-25.6 26.112-25.6 34.816V509.44c1.536-0.512 4.096-1.024 6.656-2.56L394.24 360.448l0.512-0.512c18.432-8.704 30.208-28.16 30.208-36.864l0.512-389.12zM921.6 570.368c-11.264 0-22.528-3.072-34.304-8.704l-287.232-150.528c-34.304-16.896-59.904-53.248-59.904-84.48v-405.504c0-28.16 20.992-49.152 49.664-49.152 11.264 0 22.528 3.072 34.304 8.704l286.72 150.528h0.512c9.216 4.096 18.432 11.776 20.48 22.016 3.584 17.408-11.264 34.816-26.112 35.328-4.608 0.512-14.336-2.56-17.92-4.608l-280.064-147.456c-2.56-1.536-5.12-2.048-6.656-2.56v389.632c0 8.704 12.288 27.648 30.208 36.864l272.896 144.384c2.56 1.536 5.12 2.048 6.656 2.56v-246.784c0-14.848 11.264-28.672 33.28-28.672 18.944 0 27.136 14.848 27.136 29.696V521.216c0 28.672-20.992 49.152-49.664 49.152z"  horiz-adv-x="1024" />

    
    <glyph glyph-name="next2" unicode="&#58895;" d="M959.992709 382.10688400000015c-8.526512829121202e-14 246.287289-200.3735870000001 446.664969-446.6711090000002 446.6649689999999-246.25966-7.105427357601002e-14-446.63324699999987-200.3776800000001-446.63324699999976-446.6649690000001 7.105427357601002e-14-246.26887 200.3735870000001-446.64348 446.6332470000001-446.6434799999999C759.6201460000001-64.53557299999989 959.992709 135.8390370000003 959.992709 382.10688400000015zM906.4482119999999 382.10688400000015c7.105427357601002e-14-216.76388200000002-176.3443109999999-393.0989830000001-393.1266119999998-393.09898300000003-216.75467199999997-2.842170943040401e-14-393.08875 176.33510099999984-393.0887500000002 393.09898299999986-7.105427357601002e-14 216.762859 176.33305399999995 393.12149600000004 393.08874999999983 393.1214960000001C730.1039019999998 775.2283790000001 906.4482119999998 598.8707660000001 906.4482119999999 382.10688400000015zM742.414275 363.16753200000016c10.460235999999997 10.458189000000004 10.460235999999991 27.401069999999997-1.0658141036401503e-14 37.851073l-210.11443800000004 210.17174399999993c-5.234211000000002 5.225000999999998-12.067850000000004 7.842618999999997-18.929118000000003 7.842618999999996-6.843872000000001-2.220446049250313e-15-13.696953-2.6176170000000036-18.931164999999996-7.8426190000000044-10.448979999999997-10.458189000000004-10.44897999999999-27.400047 7.105427357601002e-15-37.861306L658.8633709999999 408.8683870000001l-355.655186-1.1368683772161603e-13c-14.774494999999998-5.329070518200751e-15-26.771737-11.998265000000009-26.77173699999999-26.77173700000002 5.329070518200751e-15-14.781658 11.998265000000009-26.771737 26.77173700000002-26.77173699999999L658.863371 355.32491400000004l-164.42381699999996-164.42279300000007c-10.448979999999997-10.458189000000004-10.448979999999995-27.401069999999997 1.4210854715202004e-14-37.860283 10.459213000000004-10.458188999999997 27.402093-10.458188999999997 37.860283 1.4210854715202004e-14L742.414275 363.16753200000016z"  horiz-adv-x="1024" />

    
    <glyph glyph-name="next3" unicode="&#58900;" d="M333.83000000000004 382.7159999999999c3.479-2.443999999999998 6.131000000000001-3.769999999999998 8.119000000000002-5.8009999999999975 138.60800000000003-138.48399999999995 277.134-277.09299999999996 415.74300000000017-415.5779999999999 8.492000000000006-8.449999999999996 13.587000000000003-17.853999999999996 11.724000000000009-30.115999999999993-1.3809999999999958-11.942-9.541999999999994-21.671000000000006-20.48499999999999-25.317000000000007-3.0019999999999993-1.3180000000000005-7.050999999999998-2.1860000000000017-11.303-2.1860000000000026-7.891-2.6645352591003757e-15-15.087 2.9869999999999965-20.516 7.889999999999992-1.8380000000000005 1.5089999999999992-3.4950000000000006 3.2909999999999986-5.235000000000001 5.0299999999999985l-440.5150000000002 440.4749999999999c-17.233000000000004 17.232999999999993-17.316000000000003 34.75499999999999-0.2500000000000142 51.86500000000001 147.14299999999994 147.14300000000003 294.28499999999985 294.24300000000005 441.38599999999985 441.46900000000016 9.651999999999997 9.652000000000001 20.46399999999999 14.541000000000007 34.05199999999999 10.77100000000001 13.509999999999998-3.908999999999997 23.221999999999998-16.166999999999994 23.222000000000016-30.694999999999986 2.6645352591003757e-15-7.792-2.7959999999999985-14.933000000000002-7.436999999999991-20.475-1.9479999999999995-2.3120000000000007-4.185999999999998-4.425000000000002-6.381999999999996-6.621000000000001l-415.2039999999999-415.1640000000001c-1.5729999999999995-1.5330000000000001-3.437999999999999-2.775000000000001-7.001999999999999-5.551000000000003z"  horiz-adv-x="1024" />

    
    <glyph glyph-name="icon-test" unicode="&#58901;" d="M602.351046 587.109668L344.549179 832.582335 40.079964 600.26833a24.15911 24.15911 0 0 0-29.313054 38.412985L348.020038 896l256.416745-244.15197L896.26273 895.951682 1197.325511 637.81964a24.15911 24.15911 0 0 0-31.455162-36.681582L895.868132 832.630653 602.351046 587.109668zM602.351046-128L344.557232 117.464615 40.079964-114.833285a24.15911 24.15911 0 1 0-29.313054 38.404933l337.245075 257.310631 256.416745-244.143916 291.825947 244.103651 301.062781-258.132041a24.15911 24.15911 0 0 0-31.455162-36.67353L895.868132 117.512933l-293.517086-245.512933zM24.15911-118.988652a24.15911 24.15911 0 0 0-24.15911 24.159111v716.720275a24.15911 24.15911 0 1 0 48.318221 0v-716.720275a24.15911 24.15911 0 0 0-24.159111-24.159111zM1183.796409-118.988652a24.15911 24.15911 0 0 0-24.15911 24.159111v716.720275a24.15911 24.15911 0 1 0 48.318221 0v-716.720275a24.15911 24.15911 0 0 0-24.159111-24.159111zM330.174509 235.344967a24.15911 24.15911 0 0 0-24.159111 24.159111v410.704876a24.15911 24.15911 0 1 0 48.318221 0v-410.704876a24.15911 24.15911 0 0 0-24.15911-24.159111zM893.887084 235.344967a24.15911 24.15911 0 0 0-24.15911 24.159111v410.704876a24.15911 24.15911 0 1 0 48.318221 0v-410.704876a24.15911 24.15911 0 0 0-24.159111-24.159111zM603.97776 74.284231a24.15911 24.15911 0 0 0-24.159111 24.159111v410.704876a24.15911 24.15911 0 1 0 48.318221 0v-410.704876a24.15911 24.15911 0 0 0-24.15911-24.159111z"  horiz-adv-x="1207" />

    
    <glyph glyph-name="arrow" unicode="&#58903;" d="M511.8278264 530.25822846l378.21230145-378.20582873c15.88398459-15.89692997 41.6660088-15.89692997 57.55128794 0 15.89822451 15.8839846 15.89822451 41.6660088 0 57.55128793l-406.98729813 406.98729813c-15.88398459 15.89692997-41.6660088 15.89692997-57.55128795 0l-406.9860036-406.98729813c-7.94846498-7.94328684-11.92399202-18.3604363-11.92399201-28.77499669s3.97552703-20.83170987 11.92399201-28.77499671c15.88398459-15.89692997 41.6660088-15.89692997 57.55128794 0l378.2110069 378.20582875z"  horiz-adv-x="1024" />

    
    <glyph glyph-name="prev4" unicode="&#59266;" d="M590.933 346.533l-36.666 36.8L774.533 603.6l36.8-36.667-220.4-220.4zM554.267 383.333L590.933 420l220.4-220.4-36.8-36.667-220.266 220.4zM500.533-48c-55.733 23.6-105.866 57.333-148.8 100.267-42.933 42.933-76.666 92.933-100.266 148.8-24.4 57.733-36.8 119.066-36.8 182.266 0 63.2 12.4 124.534 36.8 182.134 23.6 55.866 57.333 105.866 100.266 148.8 42.934 43.066 93.067 76.8 148.8 100.4 57.734 24.4 119.067 36.8 182.134 36.8 63.2 0 124.533-12.4 182.266-36.8 55.734-23.6 105.734-57.334 148.8-100.267s76.8-93.067 100.267-148.8c24.4-57.733 36.8-119.067 36.8-182.133 0-63.2-12.4-124.534-36.8-182.267-23.6-55.867-57.333-105.867-100.267-148.8-42.933-42.933-93.066-76.8-148.8-100.267-57.733-24.4-119.066-36.8-182.266-36.8-63.067-0.133-124.4 12.134-182.134 36.667zM682.8 813.467c-237.6 0-430.267-192.667-430.267-430.267S445.2-47.067 682.8-47.067 1113.067 145.6 1113.067 383.2C1112.933 620.933 920.4 813.467 682.8 813.467"  horiz-adv-x="1365" />

    
    <glyph glyph-name="qiyejianjie" unicode="&#58930;" d="M942.342 653.978h-0.051c-9.384 0-16.991-7.607-16.991-16.991v-617.383c0-26.58-21.548-48.128-48.128-48.128H143.357c-26.58 0-48.128 21.548-48.128 48.128v732.78c0 26.58 21.548 48.128 48.128 48.128h594.237c26.58 0 48.128-21.548 48.128-48.128v-672.54c0-9.398 7.619-17.017 17.017-17.017s17.017 7.619 17.017 17.017V754.969c0 42.283-34.277 76.56-76.56 76.56H140.773c-42.283 0-76.56-34.277-76.56-76.56v-740.967c0-42.283 34.277-76.56 76.56-76.56h742c42.283 0 76.56 34.277 76.56 76.56V636.987c0 9.384-7.607 16.991-16.991 16.991zM555.358 627.957H330.767c-11.046 0-20 8.954-20 20v1.356c0 11.046 8.954 20 20 20h224.591c11.046 0 20-8.954 20-20v-1.356c0-11.046-8.954-20-20-20zM656.902 462.532H217.038c-11.046 0-20 8.954-20 20v1.356c0 11.046 8.954 20 20 20h439.865c11.046 0 20-8.954 20-20v-1.356c-0.001-11.046-8.955-20-20.001-20zM656.902 298.141H217.038c-11.046 0-20 8.954-20 20v1.356c0 11.046 8.954 20 20 20h439.865c11.046 0 20-8.954 20-20v-1.356c-0.001-11.046-8.955-20-20.001-20zM656.902 133.75H217.038c-11.046 0-20 8.954-20 20v1.356c0 11.046 8.954 20 20 20h439.865c11.046 0 20-8.954 20-20v-1.356c-0.001-11.046-8.955-20-20.001-20z"  horiz-adv-x="1024" />

    


  </font>
</defs>
</svg>
